%
M48
M72
T01C0.01969
T02C0.03150
T03C0.03200
T04C0.03937
T05C0.04000
T06C0.07480
%
T01
X36800Y51800
X51800Y41800
X101800Y41800
X106800Y46800
X96800Y91800
X101800Y111800
X71800Y136800
X96800Y146800
X106800Y156800
X101800Y161800
X31800Y121800
X22216Y116384
X16800Y116800
X26800Y146800
T02
X19650Y166446
X15501Y161721
X23800Y161721
X27950Y166446
X32099Y161721
X58926Y181800
X66800Y181800
X74674Y181800
T03
X86800Y161800
X86800Y151800
X86800Y141800
X86800Y131800
X86800Y121800
X86800Y111800
X86800Y101800
X86800Y91800
X86800Y81800
X86800Y71800
X86800Y61800
X86800Y51800
X86800Y41800
X86800Y31800
X66800Y31800
X66800Y41800
X51800Y26800
X36800Y26800
X36800Y66800
X51800Y66800
X106800Y16800
X116800Y16800
X116800Y31800
X116800Y41800
X116800Y51800
X116800Y61800
X116800Y71800
X116800Y81800
X116800Y91800
X116800Y101800
X116800Y111800
X116800Y121800
X116800Y131800
X116800Y141800
X116800Y151800
X116800Y161800
X131800Y176800
X141800Y176800
X136800Y161800
X136800Y151800
X151800Y156800
X161800Y171800
X161800Y191800
X141800Y191800
X131800Y191800
X116800Y186800
X111800Y194300
X106800Y186800
X181800Y181800
X181800Y191800
X191800Y156800
X151800Y81800
X131800Y81800
X131800Y16800
X171800Y16800
T04
X51052Y181800
X82548Y181800
T05
X6800Y136800
X6800Y126800
X6800Y116800
X6800Y106800
X6800Y96800
X6800Y86800
X6800Y76800
X6800Y66800
X6800Y56800
X6800Y46800
X6800Y36800
X6800Y26800
X6800Y16800
X31800Y11800
X51800Y11800
X71800Y11800
X91800Y11800
X66800Y71800
X66800Y81800
X66800Y91800
X193800Y86800
X193800Y76800
X193800Y66800
X193800Y96800
X193800Y106800
X193800Y116800
X193800Y126800
X193800Y136800
T06
X9430Y181800
X38170Y181800
M30
