G75*
%MOIN*%
%OFA0B0*%
%FSLAX25Y25*%
%IPPOS*%
%LPD*%
%AMOC8*
5,1,8,0,0,1.08239X$1,22.5*
%
%ADD10C,0.00000*%
%ADD11OC8,0.05200*%
%ADD12C,0.05200*%
%ADD13C,0.05150*%
%ADD14C,0.11220*%
%ADD15C,0.05200*%
%ADD16C,0.07400*%
%ADD17C,0.05937*%
%ADD18C,0.01600*%
%ADD19OC8,0.03169*%
%ADD20R,0.03169X0.03169*%
D10*
X0001800Y0001800D02*
X0001800Y0198650D01*
X0198650Y0198650D01*
X0198650Y0001800D01*
X0001800Y0001800D01*
D11*
X0036800Y0026800D03*
X0051800Y0026800D03*
X0066800Y0031800D03*
X0066800Y0041800D03*
X0051800Y0066800D03*
X0036800Y0066800D03*
X0106800Y0016800D03*
X0116800Y0016800D03*
X0131800Y0016800D03*
X0171800Y0016800D03*
X0151800Y0081800D03*
X0136800Y0151800D03*
X0136800Y0161800D03*
X0131800Y0176800D03*
X0141800Y0176800D03*
X0141800Y0191800D03*
X0131800Y0191800D03*
X0116800Y0186800D03*
X0111800Y0194300D03*
X0106800Y0186800D03*
X0151800Y0156800D03*
X0181800Y0181800D03*
X0181800Y0191800D03*
X0161800Y0191800D03*
X0191800Y0156800D03*
D12*
X0161800Y0171800D03*
X0131800Y0081800D03*
D13*
X0032099Y0161721D03*
X0027950Y0166446D03*
X0023800Y0161721D03*
X0019650Y0166446D03*
X0015501Y0161721D03*
X0058926Y0181800D03*
X0066800Y0181800D03*
X0074674Y0181800D03*
D14*
X0038170Y0181800D03*
X0009430Y0181800D03*
D15*
X0084200Y0161800D02*
X0089400Y0161800D01*
X0089400Y0151800D02*
X0084200Y0151800D01*
X0084200Y0141800D02*
X0089400Y0141800D01*
X0089400Y0131800D02*
X0084200Y0131800D01*
X0084200Y0121800D02*
X0089400Y0121800D01*
X0089400Y0111800D02*
X0084200Y0111800D01*
X0084200Y0101800D02*
X0089400Y0101800D01*
X0089400Y0091800D02*
X0084200Y0091800D01*
X0084200Y0081800D02*
X0089400Y0081800D01*
X0089400Y0071800D02*
X0084200Y0071800D01*
X0084200Y0061800D02*
X0089400Y0061800D01*
X0089400Y0051800D02*
X0084200Y0051800D01*
X0084200Y0041800D02*
X0089400Y0041800D01*
X0089400Y0031800D02*
X0084200Y0031800D01*
X0114200Y0031800D02*
X0119400Y0031800D01*
X0119400Y0041800D02*
X0114200Y0041800D01*
X0114200Y0051800D02*
X0119400Y0051800D01*
X0119400Y0061800D02*
X0114200Y0061800D01*
X0114200Y0071800D02*
X0119400Y0071800D01*
X0119400Y0081800D02*
X0114200Y0081800D01*
X0114200Y0091800D02*
X0119400Y0091800D01*
X0119400Y0101800D02*
X0114200Y0101800D01*
X0114200Y0111800D02*
X0119400Y0111800D01*
X0119400Y0121800D02*
X0114200Y0121800D01*
X0114200Y0131800D02*
X0119400Y0131800D01*
X0119400Y0141800D02*
X0114200Y0141800D01*
X0114200Y0151800D02*
X0119400Y0151800D01*
X0119400Y0161800D02*
X0114200Y0161800D01*
D16*
X0066800Y0091800D03*
X0066800Y0081800D03*
X0066800Y0071800D03*
X0071800Y0011800D03*
X0051800Y0011800D03*
X0031800Y0011800D03*
X0006800Y0016800D03*
X0006800Y0026800D03*
X0006800Y0036800D03*
X0006800Y0046800D03*
X0006800Y0056800D03*
X0006800Y0066800D03*
X0006800Y0076800D03*
X0006800Y0086800D03*
X0006800Y0096800D03*
X0006800Y0106800D03*
X0006800Y0116800D03*
X0006800Y0126800D03*
X0006800Y0136800D03*
X0091800Y0011800D03*
X0193800Y0066800D03*
X0193800Y0076800D03*
X0193800Y0086800D03*
X0193800Y0096800D03*
X0193800Y0106800D03*
X0193800Y0116800D03*
X0193800Y0126800D03*
X0193800Y0136800D03*
D17*
X0082548Y0181800D03*
X0051052Y0181800D03*
D18*
X0046598Y0184030D02*
X0045484Y0184030D01*
X0045780Y0183314D02*
X0044622Y0186111D01*
X0042481Y0188252D01*
X0039684Y0189410D01*
X0036656Y0189410D01*
X0033859Y0188252D01*
X0031718Y0186111D01*
X0030560Y0183314D01*
X0030560Y0180286D01*
X0031718Y0177489D01*
X0033859Y0175348D01*
X0036656Y0174190D01*
X0039684Y0174190D01*
X0042481Y0175348D01*
X0044622Y0177489D01*
X0045780Y0180286D01*
X0045780Y0183314D01*
X0046083Y0182788D02*
X0046083Y0180812D01*
X0046840Y0178986D01*
X0048238Y0177588D01*
X0050064Y0176831D01*
X0052040Y0176831D01*
X0053866Y0177588D01*
X0055264Y0178986D01*
X0055266Y0178990D01*
X0056335Y0177922D01*
X0058016Y0177225D01*
X0059836Y0177225D01*
X0061517Y0177922D01*
X0062804Y0179209D01*
X0062863Y0179350D01*
X0062922Y0179209D01*
X0064209Y0177922D01*
X0065890Y0177225D01*
X0067710Y0177225D01*
X0069391Y0177922D01*
X0070678Y0179209D01*
X0070737Y0179350D01*
X0070796Y0179209D01*
X0072083Y0177922D01*
X0073764Y0177225D01*
X0075584Y0177225D01*
X0077265Y0177922D01*
X0078334Y0178990D01*
X0078336Y0178986D01*
X0079734Y0177588D01*
X0081560Y0176831D01*
X0083536Y0176831D01*
X0085362Y0177588D01*
X0086760Y0178986D01*
X0087517Y0180812D01*
X0087517Y0182788D01*
X0086760Y0184614D01*
X0085362Y0186012D01*
X0083536Y0186768D01*
X0081560Y0186768D01*
X0079734Y0186012D01*
X0078336Y0184614D01*
X0078334Y0184610D01*
X0077265Y0185678D01*
X0075584Y0186375D01*
X0073764Y0186375D01*
X0072083Y0185678D01*
X0070796Y0184391D01*
X0070737Y0184250D01*
X0070678Y0184391D01*
X0069391Y0185678D01*
X0067710Y0186375D01*
X0065890Y0186375D01*
X0064209Y0185678D01*
X0062922Y0184391D01*
X0062863Y0184250D01*
X0062804Y0184391D01*
X0061517Y0185678D01*
X0059836Y0186375D01*
X0058016Y0186375D01*
X0056335Y0185678D01*
X0055266Y0184610D01*
X0055264Y0184614D01*
X0053866Y0186012D01*
X0052040Y0186768D01*
X0050064Y0186768D01*
X0048238Y0186012D01*
X0046840Y0184614D01*
X0046083Y0182788D01*
X0046083Y0182432D02*
X0045780Y0182432D01*
X0045780Y0180833D02*
X0046083Y0180833D01*
X0046737Y0179235D02*
X0045345Y0179235D01*
X0044683Y0177636D02*
X0048189Y0177636D01*
X0043170Y0176038D02*
X0127200Y0176038D01*
X0127200Y0174895D02*
X0129895Y0172200D01*
X0133705Y0172200D01*
X0136400Y0174895D01*
X0136400Y0178705D01*
X0133705Y0181400D01*
X0129895Y0181400D01*
X0127200Y0178705D01*
X0127200Y0174895D01*
X0127655Y0174439D02*
X0040286Y0174439D01*
X0036054Y0174439D02*
X0011546Y0174439D01*
X0010944Y0174190D02*
X0013741Y0175348D01*
X0015882Y0177489D01*
X0017040Y0180286D01*
X0017040Y0183314D01*
X0015882Y0186111D01*
X0013741Y0188252D01*
X0010944Y0189410D01*
X0007916Y0189410D01*
X0005119Y0188252D01*
X0003800Y0186933D01*
X0003800Y0196650D01*
X0107645Y0196650D01*
X0107200Y0196205D01*
X0107200Y0192395D01*
X0108395Y0191200D01*
X0106800Y0191200D01*
X0106800Y0186800D01*
X0111200Y0186800D01*
X0111200Y0188623D01*
X0110123Y0189700D01*
X0113195Y0189700D01*
X0112200Y0188705D01*
X0112200Y0184895D01*
X0114895Y0182200D01*
X0118705Y0182200D01*
X0120505Y0184000D01*
X0127357Y0184000D01*
X0128386Y0184426D01*
X0131160Y0187200D01*
X0133705Y0187200D01*
X0136400Y0189895D01*
X0136400Y0193705D01*
X0133705Y0196400D01*
X0129895Y0196400D01*
X0127200Y0193705D01*
X0127200Y0191160D01*
X0125640Y0189600D01*
X0120505Y0189600D01*
X0118705Y0191400D01*
X0115405Y0191400D01*
X0116400Y0192395D01*
X0116400Y0196205D01*
X0115955Y0196650D01*
X0196650Y0196650D01*
X0196650Y0141789D01*
X0194934Y0142500D01*
X0192666Y0142500D01*
X0191382Y0141968D01*
X0188616Y0143944D01*
X0188386Y0144174D01*
X0188167Y0144264D01*
X0187974Y0144402D01*
X0187657Y0144476D01*
X0187357Y0144600D01*
X0187120Y0144600D01*
X0186889Y0144653D01*
X0186568Y0144600D01*
X0123105Y0144600D01*
X0122006Y0145700D01*
X0120315Y0146400D01*
X0113285Y0146400D01*
X0111594Y0145700D01*
X0110300Y0144406D01*
X0109600Y0142715D01*
X0109600Y0140885D01*
X0110300Y0139194D01*
X0111594Y0137900D01*
X0113285Y0137200D01*
X0120315Y0137200D01*
X0122006Y0137900D01*
X0123105Y0139000D01*
X0185903Y0139000D01*
X0188100Y0137430D01*
X0188100Y0135666D01*
X0188896Y0133743D01*
X0188616Y0133944D01*
X0188386Y0134174D01*
X0188167Y0134264D01*
X0187974Y0134402D01*
X0187657Y0134476D01*
X0187357Y0134600D01*
X0187120Y0134600D01*
X0186889Y0134653D01*
X0186568Y0134600D01*
X0123105Y0134600D01*
X0122006Y0135700D01*
X0120315Y0136400D01*
X0113285Y0136400D01*
X0111594Y0135700D01*
X0110300Y0134406D01*
X0109600Y0132715D01*
X0109600Y0130885D01*
X0110300Y0129194D01*
X0111594Y0127900D01*
X0113285Y0127200D01*
X0120315Y0127200D01*
X0122006Y0127900D01*
X0123105Y0129000D01*
X0185903Y0129000D01*
X0188100Y0127430D01*
X0188100Y0125666D01*
X0188896Y0123743D01*
X0188616Y0123944D01*
X0188386Y0124174D01*
X0188167Y0124264D01*
X0187974Y0124402D01*
X0187657Y0124476D01*
X0187357Y0124600D01*
X0187120Y0124600D01*
X0186889Y0124653D01*
X0186568Y0124600D01*
X0123105Y0124600D01*
X0122006Y0125700D01*
X0120315Y0126400D01*
X0113285Y0126400D01*
X0111594Y0125700D01*
X0110300Y0124406D01*
X0109600Y0122715D01*
X0109600Y0120885D01*
X0110300Y0119194D01*
X0111594Y0117900D01*
X0113285Y0117200D01*
X0120315Y0117200D01*
X0122006Y0117900D01*
X0123105Y0119000D01*
X0185903Y0119000D01*
X0188100Y0117430D01*
X0188100Y0115666D01*
X0188968Y0113571D01*
X0190571Y0111968D01*
X0190976Y0111800D01*
X0190571Y0111632D01*
X0188968Y0110029D01*
X0188100Y0107934D01*
X0188100Y0105666D01*
X0188233Y0105346D01*
X0145676Y0064600D01*
X0123105Y0064600D01*
X0122006Y0065700D01*
X0120315Y0066400D01*
X0113285Y0066400D01*
X0111594Y0065700D01*
X0110300Y0064406D01*
X0109600Y0062715D01*
X0109600Y0060885D01*
X0110300Y0059194D01*
X0111594Y0057900D01*
X0113285Y0057200D01*
X0120315Y0057200D01*
X0122006Y0057900D01*
X0123105Y0059000D01*
X0146770Y0059000D01*
X0147296Y0058989D01*
X0147325Y0059000D01*
X0147357Y0059000D01*
X0147843Y0059202D01*
X0148334Y0059392D01*
X0148357Y0059414D01*
X0148386Y0059426D01*
X0148758Y0059798D01*
X0188100Y0097466D01*
X0188100Y0095666D01*
X0188233Y0095346D01*
X0145676Y0054600D01*
X0123105Y0054600D01*
X0122006Y0055700D01*
X0120315Y0056400D01*
X0113285Y0056400D01*
X0111594Y0055700D01*
X0110300Y0054406D01*
X0109600Y0052715D01*
X0109600Y0050885D01*
X0110300Y0049194D01*
X0111594Y0047900D01*
X0113285Y0047200D01*
X0120315Y0047200D01*
X0122006Y0047900D01*
X0123105Y0049000D01*
X0146770Y0049000D01*
X0147296Y0048989D01*
X0147325Y0049000D01*
X0147357Y0049000D01*
X0147843Y0049202D01*
X0148334Y0049392D01*
X0148357Y0049414D01*
X0148386Y0049426D01*
X0148758Y0049798D01*
X0188100Y0087466D01*
X0188100Y0085666D01*
X0188233Y0085346D01*
X0145676Y0044600D01*
X0123105Y0044600D01*
X0122006Y0045700D01*
X0120315Y0046400D01*
X0113285Y0046400D01*
X0111594Y0045700D01*
X0110300Y0044406D01*
X0109600Y0042715D01*
X0109600Y0040885D01*
X0110300Y0039194D01*
X0111594Y0037900D01*
X0113285Y0037200D01*
X0120315Y0037200D01*
X0122006Y0037900D01*
X0123105Y0039000D01*
X0146770Y0039000D01*
X0147296Y0038989D01*
X0147325Y0039000D01*
X0147357Y0039000D01*
X0147843Y0039202D01*
X0148334Y0039392D01*
X0148357Y0039414D01*
X0148386Y0039426D01*
X0148758Y0039798D01*
X0188100Y0077466D01*
X0188100Y0075666D01*
X0188968Y0073571D01*
X0190571Y0071968D01*
X0191264Y0071681D01*
X0190917Y0071504D01*
X0190217Y0070995D01*
X0189605Y0070383D01*
X0189096Y0069683D01*
X0188703Y0068911D01*
X0188435Y0068088D01*
X0188300Y0067233D01*
X0188300Y0067000D01*
X0193600Y0067000D01*
X0193600Y0066600D01*
X0194000Y0066600D01*
X0194000Y0061300D01*
X0194233Y0061300D01*
X0195088Y0061435D01*
X0195911Y0061703D01*
X0196650Y0062080D01*
X0196650Y0003800D01*
X0003800Y0003800D01*
X0003800Y0011873D01*
X0005666Y0011100D01*
X0007934Y0011100D01*
X0010029Y0011968D01*
X0011632Y0013571D01*
X0012500Y0015666D01*
X0012500Y0017934D01*
X0011632Y0020029D01*
X0010029Y0021632D01*
X0009624Y0021800D01*
X0010029Y0021968D01*
X0011632Y0023571D01*
X0012500Y0025666D01*
X0012500Y0027934D01*
X0011632Y0030029D01*
X0010029Y0031632D01*
X0009336Y0031919D01*
X0009683Y0032096D01*
X0010383Y0032605D01*
X0010995Y0033217D01*
X0011504Y0033917D01*
X0011897Y0034689D01*
X0012165Y0035512D01*
X0012300Y0036367D01*
X0012300Y0036600D01*
X0007000Y0036600D01*
X0007000Y0037000D01*
X0012300Y0037000D01*
X0012300Y0037233D01*
X0012165Y0038088D01*
X0011897Y0038911D01*
X0011504Y0039683D01*
X0010995Y0040383D01*
X0010383Y0040995D01*
X0009683Y0041504D01*
X0009336Y0041681D01*
X0010029Y0041968D01*
X0011632Y0043571D01*
X0011810Y0044000D01*
X0045640Y0044000D01*
X0048216Y0041424D01*
X0048216Y0040315D01*
X0050315Y0038216D01*
X0053285Y0038216D01*
X0055384Y0040315D01*
X0055384Y0043285D01*
X0053285Y0045384D01*
X0052176Y0045384D01*
X0048386Y0049174D01*
X0047357Y0049600D01*
X0040384Y0049600D01*
X0040384Y0054213D01*
X0039213Y0055384D01*
X0037176Y0055384D01*
X0033386Y0059174D01*
X0032357Y0059600D01*
X0011810Y0059600D01*
X0011632Y0060029D01*
X0010029Y0061632D01*
X0009336Y0061919D01*
X0009683Y0062096D01*
X0010383Y0062605D01*
X0010995Y0063217D01*
X0011504Y0063917D01*
X0011897Y0064689D01*
X0012165Y0065512D01*
X0012300Y0066367D01*
X0012300Y0066600D01*
X0007000Y0066600D01*
X0007000Y0067000D01*
X0012300Y0067000D01*
X0012300Y0067233D01*
X0012165Y0068088D01*
X0011897Y0068911D01*
X0011504Y0069683D01*
X0010995Y0070383D01*
X0010383Y0070995D01*
X0009683Y0071504D01*
X0009336Y0071681D01*
X0010029Y0071968D01*
X0011632Y0073571D01*
X0011810Y0074000D01*
X0020640Y0074000D01*
X0029426Y0065214D01*
X0030214Y0064426D01*
X0031243Y0064000D01*
X0033095Y0064000D01*
X0034895Y0062200D01*
X0038705Y0062200D01*
X0040505Y0064000D01*
X0048095Y0064000D01*
X0049895Y0062200D01*
X0053705Y0062200D01*
X0055573Y0064067D01*
X0070214Y0049426D01*
X0071243Y0049000D01*
X0080495Y0049000D01*
X0081594Y0047900D01*
X0083285Y0047200D01*
X0090315Y0047200D01*
X0092006Y0047900D01*
X0093105Y0049000D01*
X0100640Y0049000D01*
X0103216Y0046424D01*
X0103216Y0045384D01*
X0100315Y0045384D01*
X0099531Y0044600D01*
X0093105Y0044600D01*
X0092006Y0045700D01*
X0090315Y0046400D01*
X0083285Y0046400D01*
X0081594Y0045700D01*
X0080300Y0044406D01*
X0079600Y0042715D01*
X0079600Y0040885D01*
X0080281Y0039241D01*
X0075640Y0034600D01*
X0070505Y0034600D01*
X0068705Y0036400D01*
X0064895Y0036400D01*
X0062200Y0033705D01*
X0062200Y0029895D01*
X0064895Y0027200D01*
X0068705Y0027200D01*
X0070505Y0029000D01*
X0077357Y0029000D01*
X0078386Y0029426D01*
X0079672Y0030712D01*
X0080300Y0029194D01*
X0081594Y0027900D01*
X0083285Y0027200D01*
X0090315Y0027200D01*
X0092006Y0027900D01*
X0093300Y0029194D01*
X0094000Y0030885D01*
X0094000Y0032715D01*
X0093300Y0034406D01*
X0092006Y0035700D01*
X0090315Y0036400D01*
X0085360Y0036400D01*
X0086160Y0037200D01*
X0090315Y0037200D01*
X0092006Y0037900D01*
X0093105Y0039000D01*
X0099531Y0039000D01*
X0100315Y0038216D01*
X0103285Y0038216D01*
X0105384Y0040315D01*
X0105384Y0043216D01*
X0108285Y0043216D01*
X0110384Y0045315D01*
X0110384Y0048285D01*
X0108285Y0050384D01*
X0107176Y0050384D01*
X0103386Y0054174D01*
X0102357Y0054600D01*
X0093105Y0054600D01*
X0092006Y0055700D01*
X0090315Y0056400D01*
X0083285Y0056400D01*
X0081594Y0055700D01*
X0080495Y0054600D01*
X0072960Y0054600D01*
X0063727Y0063833D01*
X0064048Y0063700D01*
X0065940Y0063700D01*
X0069426Y0060214D01*
X0070214Y0059426D01*
X0071243Y0059000D01*
X0080495Y0059000D01*
X0081594Y0057900D01*
X0083285Y0057200D01*
X0090315Y0057200D01*
X0092006Y0057900D01*
X0093300Y0059194D01*
X0094000Y0060885D01*
X0094000Y0062715D01*
X0093300Y0064406D01*
X0092006Y0065700D01*
X0090315Y0066400D01*
X0083285Y0066400D01*
X0081594Y0065700D01*
X0080495Y0064600D01*
X0072960Y0064600D01*
X0070310Y0067249D01*
X0071632Y0068571D01*
X0072500Y0070666D01*
X0072500Y0072934D01*
X0071632Y0075029D01*
X0070029Y0076632D01*
X0069336Y0076919D01*
X0069683Y0077096D01*
X0070383Y0077605D01*
X0070995Y0078217D01*
X0071504Y0078917D01*
X0071897Y0079689D01*
X0072165Y0080512D01*
X0072300Y0081367D01*
X0072300Y0081600D01*
X0067000Y0081600D01*
X0067000Y0082000D01*
X0072300Y0082000D01*
X0072300Y0082233D01*
X0072165Y0083088D01*
X0071897Y0083911D01*
X0071504Y0084683D01*
X0070995Y0085383D01*
X0070383Y0085995D01*
X0069683Y0086504D01*
X0069336Y0086681D01*
X0070029Y0086968D01*
X0071632Y0088571D01*
X0072500Y0090666D01*
X0072500Y0092934D01*
X0071632Y0095029D01*
X0070029Y0096632D01*
X0067934Y0097500D01*
X0065666Y0097500D01*
X0063571Y0096632D01*
X0061968Y0095029D01*
X0061100Y0092934D01*
X0061100Y0090666D01*
X0061968Y0088571D01*
X0063571Y0086968D01*
X0064264Y0086681D01*
X0063917Y0086504D01*
X0063217Y0085995D01*
X0062605Y0085383D01*
X0062096Y0084683D01*
X0061703Y0083911D01*
X0061435Y0083088D01*
X0061300Y0082233D01*
X0061300Y0082000D01*
X0066600Y0082000D01*
X0066600Y0081600D01*
X0061300Y0081600D01*
X0061300Y0081367D01*
X0061435Y0080512D01*
X0061703Y0079689D01*
X0062096Y0078917D01*
X0062605Y0078217D01*
X0063217Y0077605D01*
X0063917Y0077096D01*
X0064264Y0076919D01*
X0063571Y0076632D01*
X0062249Y0075310D01*
X0038560Y0099000D01*
X0080495Y0099000D01*
X0081594Y0097900D01*
X0083285Y0097200D01*
X0090315Y0097200D01*
X0092006Y0097900D01*
X0093300Y0099194D01*
X0094000Y0100885D01*
X0094000Y0102715D01*
X0093300Y0104406D01*
X0092006Y0105700D01*
X0090315Y0106400D01*
X0083285Y0106400D01*
X0081594Y0105700D01*
X0080495Y0104600D01*
X0017960Y0104600D01*
X0013386Y0109174D01*
X0012357Y0109600D01*
X0011810Y0109600D01*
X0011632Y0110029D01*
X0010029Y0111632D01*
X0009624Y0111800D01*
X0010029Y0111968D01*
X0011458Y0113397D01*
X0013440Y0111414D01*
X0014228Y0110626D01*
X0015257Y0110200D01*
X0079884Y0110200D01*
X0080300Y0109194D01*
X0081594Y0107900D01*
X0083285Y0107200D01*
X0090315Y0107200D01*
X0092006Y0107900D01*
X0093300Y0109194D01*
X0094000Y0110885D01*
X0094000Y0112715D01*
X0093300Y0114406D01*
X0092006Y0115700D01*
X0090315Y0116400D01*
X0083285Y0116400D01*
X0081837Y0115800D01*
X0025800Y0115800D01*
X0025800Y0117869D01*
X0025016Y0118653D01*
X0025016Y0121056D01*
X0032960Y0129000D01*
X0080495Y0129000D01*
X0081594Y0127900D01*
X0083285Y0127200D01*
X0090315Y0127200D01*
X0092006Y0127900D01*
X0093300Y0129194D01*
X0094000Y0130885D01*
X0094000Y0132715D01*
X0093300Y0134406D01*
X0092006Y0135700D01*
X0090315Y0136400D01*
X0083285Y0136400D01*
X0081594Y0135700D01*
X0080495Y0134600D01*
X0074669Y0134600D01*
X0075384Y0135315D01*
X0075384Y0138285D01*
X0074669Y0139000D01*
X0080495Y0139000D01*
X0081594Y0137900D01*
X0083285Y0137200D01*
X0090315Y0137200D01*
X0092006Y0137900D01*
X0093300Y0139194D01*
X0094000Y0140885D01*
X0094000Y0142715D01*
X0093468Y0144000D01*
X0094531Y0144000D01*
X0095315Y0143216D01*
X0098285Y0143216D01*
X0100384Y0145315D01*
X0100384Y0148285D01*
X0098285Y0150384D01*
X0095315Y0150384D01*
X0094531Y0149600D01*
X0093468Y0149600D01*
X0094000Y0150885D01*
X0094000Y0152715D01*
X0093468Y0154000D01*
X0104531Y0154000D01*
X0105315Y0153216D01*
X0108285Y0153216D01*
X0110384Y0155315D01*
X0110384Y0158285D01*
X0109669Y0159000D01*
X0110495Y0159000D01*
X0111594Y0157900D01*
X0113285Y0157200D01*
X0120315Y0157200D01*
X0122006Y0157900D01*
X0123105Y0159000D01*
X0133095Y0159000D01*
X0134895Y0157200D01*
X0138705Y0157200D01*
X0140505Y0159000D01*
X0147777Y0159000D01*
X0147400Y0158623D01*
X0147400Y0156800D01*
X0151800Y0156800D01*
X0156200Y0156800D01*
X0156200Y0158623D01*
X0154391Y0160431D01*
X0161160Y0167200D01*
X0162715Y0167200D01*
X0164406Y0167900D01*
X0165700Y0169194D01*
X0166400Y0170885D01*
X0166400Y0172715D01*
X0165700Y0174406D01*
X0164406Y0175700D01*
X0162715Y0176400D01*
X0160885Y0176400D01*
X0159194Y0175700D01*
X0157900Y0174406D01*
X0157200Y0172715D01*
X0157200Y0171160D01*
X0150640Y0164600D01*
X0140505Y0164600D01*
X0138705Y0166400D01*
X0134895Y0166400D01*
X0133095Y0164600D01*
X0123105Y0164600D01*
X0122006Y0165700D01*
X0120315Y0166400D01*
X0113285Y0166400D01*
X0111594Y0165700D01*
X0110495Y0164600D01*
X0104069Y0164600D01*
X0103285Y0165384D01*
X0100315Y0165384D01*
X0098216Y0163285D01*
X0098216Y0160315D01*
X0098931Y0159600D01*
X0093468Y0159600D01*
X0094000Y0160885D01*
X0094000Y0162715D01*
X0093300Y0164406D01*
X0092006Y0165700D01*
X0090315Y0166400D01*
X0083285Y0166400D01*
X0081594Y0165700D01*
X0080300Y0164406D01*
X0079672Y0162888D01*
X0073740Y0168819D01*
X0072711Y0169246D01*
X0031619Y0169246D01*
X0030541Y0170324D01*
X0028860Y0171020D01*
X0027040Y0171020D01*
X0025358Y0170324D01*
X0024071Y0169037D01*
X0023800Y0168382D01*
X0023529Y0169037D01*
X0022242Y0170324D01*
X0020560Y0171020D01*
X0018740Y0171020D01*
X0017059Y0170324D01*
X0015772Y0169037D01*
X0015076Y0167356D01*
X0015076Y0166083D01*
X0014476Y0165988D01*
X0013821Y0165776D01*
X0013208Y0165463D01*
X0012651Y0165058D01*
X0012164Y0164571D01*
X0011759Y0164014D01*
X0011446Y0163401D01*
X0011234Y0162746D01*
X0011126Y0162066D01*
X0011126Y0161721D01*
X0011126Y0161377D01*
X0011234Y0160697D01*
X0011446Y0160042D01*
X0011759Y0159428D01*
X0012164Y0158871D01*
X0012651Y0158384D01*
X0013208Y0157980D01*
X0013821Y0157667D01*
X0014476Y0157454D01*
X0015156Y0157346D01*
X0015501Y0157346D01*
X0015845Y0157346D01*
X0016525Y0157454D01*
X0017180Y0157667D01*
X0017794Y0157980D01*
X0018351Y0158384D01*
X0018838Y0158871D01*
X0019242Y0159428D01*
X0019549Y0160030D01*
X0019922Y0159130D01*
X0021209Y0157843D01*
X0022890Y0157146D01*
X0024710Y0157146D01*
X0026391Y0157843D01*
X0027678Y0159130D01*
X0027950Y0159785D01*
X0028221Y0159130D01*
X0029508Y0157843D01*
X0031189Y0157146D01*
X0033009Y0157146D01*
X0034691Y0157843D01*
X0035978Y0159130D01*
X0036674Y0160811D01*
X0036674Y0162631D01*
X0036254Y0163646D01*
X0070995Y0163646D01*
X0079426Y0155214D01*
X0080040Y0154600D01*
X0021243Y0154600D01*
X0020214Y0154174D01*
X0019426Y0153386D01*
X0014426Y0148386D01*
X0014000Y0147357D01*
X0014000Y0137960D01*
X0012500Y0136460D01*
X0012500Y0137934D01*
X0011632Y0140029D01*
X0010029Y0141632D01*
X0007934Y0142500D01*
X0005666Y0142500D01*
X0003800Y0141727D01*
X0003800Y0176667D01*
X0005119Y0175348D01*
X0007916Y0174190D01*
X0010944Y0174190D01*
X0007314Y0174439D02*
X0003800Y0174439D01*
X0003800Y0172841D02*
X0129254Y0172841D01*
X0127200Y0177636D02*
X0085411Y0177636D01*
X0086863Y0179235D02*
X0127729Y0179235D01*
X0129328Y0180833D02*
X0087517Y0180833D01*
X0087517Y0182432D02*
X0104946Y0182432D01*
X0104977Y0182400D02*
X0106800Y0182400D01*
X0108623Y0182400D01*
X0111200Y0184977D01*
X0111200Y0186800D01*
X0106800Y0186800D01*
X0106800Y0186800D01*
X0106800Y0186800D01*
X0106800Y0182400D01*
X0106800Y0186800D01*
X0106800Y0186800D01*
X0106800Y0186800D01*
X0102400Y0186800D01*
X0102400Y0188623D01*
X0104977Y0191200D01*
X0106800Y0191200D01*
X0106800Y0186800D01*
X0102400Y0186800D01*
X0102400Y0184977D01*
X0104977Y0182400D01*
X0106800Y0182432D02*
X0106800Y0182432D01*
X0106800Y0184030D02*
X0106800Y0184030D01*
X0106800Y0185629D02*
X0106800Y0185629D01*
X0106800Y0187227D02*
X0106800Y0187227D01*
X0106800Y0188826D02*
X0106800Y0188826D01*
X0106800Y0190424D02*
X0106800Y0190424D01*
X0107572Y0192023D02*
X0003800Y0192023D01*
X0003800Y0193621D02*
X0107200Y0193621D01*
X0107200Y0195220D02*
X0003800Y0195220D01*
X0003800Y0190424D02*
X0104202Y0190424D01*
X0102603Y0188826D02*
X0041095Y0188826D01*
X0043505Y0187227D02*
X0102400Y0187227D01*
X0102400Y0185629D02*
X0085746Y0185629D01*
X0087002Y0184030D02*
X0103347Y0184030D01*
X0108654Y0182432D02*
X0114663Y0182432D01*
X0113064Y0184030D02*
X0110253Y0184030D01*
X0111200Y0185629D02*
X0112200Y0185629D01*
X0112200Y0187227D02*
X0111200Y0187227D01*
X0110997Y0188826D02*
X0112320Y0188826D01*
X0116028Y0192023D02*
X0127200Y0192023D01*
X0127200Y0193621D02*
X0116400Y0193621D01*
X0116400Y0195220D02*
X0128714Y0195220D01*
X0131800Y0191800D02*
X0126800Y0186800D01*
X0116800Y0186800D01*
X0119681Y0190424D02*
X0126465Y0190424D01*
X0129589Y0185629D02*
X0179123Y0185629D01*
X0179895Y0186400D02*
X0177200Y0183705D01*
X0177200Y0179895D01*
X0179895Y0177200D01*
X0183705Y0177200D01*
X0186400Y0179895D01*
X0186400Y0183705D01*
X0183705Y0186400D01*
X0179895Y0186400D01*
X0179895Y0187200D02*
X0183705Y0187200D01*
X0186400Y0189895D01*
X0186400Y0193705D01*
X0183705Y0196400D01*
X0179895Y0196400D01*
X0177200Y0193705D01*
X0177200Y0189895D01*
X0179895Y0187200D01*
X0179867Y0187227D02*
X0133733Y0187227D01*
X0135331Y0188826D02*
X0138552Y0188826D01*
X0137400Y0189977D02*
X0139977Y0187400D01*
X0141800Y0187400D01*
X0143623Y0187400D01*
X0146200Y0189977D01*
X0146200Y0191800D01*
X0146200Y0193623D01*
X0143623Y0196200D01*
X0141800Y0196200D01*
X0141800Y0191800D01*
X0146200Y0191800D01*
X0141800Y0191800D01*
X0141800Y0191800D01*
X0141800Y0191800D01*
X0141800Y0187400D01*
X0141800Y0191800D01*
X0141800Y0191800D01*
X0141800Y0191800D01*
X0137400Y0191800D01*
X0137400Y0193623D01*
X0139977Y0196200D01*
X0141800Y0196200D01*
X0141800Y0191800D01*
X0137400Y0191800D01*
X0137400Y0189977D01*
X0137400Y0190424D02*
X0136400Y0190424D01*
X0136400Y0192023D02*
X0137400Y0192023D01*
X0137400Y0193621D02*
X0136400Y0193621D01*
X0134885Y0195220D02*
X0138997Y0195220D01*
X0141800Y0195220D02*
X0141800Y0195220D01*
X0141800Y0193621D02*
X0141800Y0193621D01*
X0141800Y0192023D02*
X0141800Y0192023D01*
X0141800Y0190424D02*
X0141800Y0190424D01*
X0141800Y0188826D02*
X0141800Y0188826D01*
X0145048Y0188826D02*
X0158552Y0188826D01*
X0157400Y0189977D02*
X0159977Y0187400D01*
X0161800Y0187400D01*
X0163623Y0187400D01*
X0166200Y0189977D01*
X0166200Y0191800D01*
X0166200Y0193623D01*
X0163623Y0196200D01*
X0161800Y0196200D01*
X0161800Y0191800D01*
X0161800Y0191800D01*
X0166200Y0191800D01*
X0161800Y0191800D01*
X0161800Y0191800D01*
X0161800Y0191800D01*
X0157400Y0191800D01*
X0157400Y0193623D01*
X0159977Y0196200D01*
X0161800Y0196200D01*
X0161800Y0191800D01*
X0161800Y0187400D01*
X0161800Y0191800D01*
X0161800Y0191800D01*
X0157400Y0191800D01*
X0157400Y0189977D01*
X0157400Y0190424D02*
X0146200Y0190424D01*
X0146200Y0192023D02*
X0157400Y0192023D01*
X0157400Y0193621D02*
X0146200Y0193621D01*
X0144603Y0195220D02*
X0158997Y0195220D01*
X0161800Y0195220D02*
X0161800Y0195220D01*
X0161800Y0193621D02*
X0161800Y0193621D01*
X0161800Y0192023D02*
X0161800Y0192023D01*
X0161800Y0190424D02*
X0161800Y0190424D01*
X0161800Y0188826D02*
X0161800Y0188826D01*
X0165048Y0188826D02*
X0178269Y0188826D01*
X0177200Y0190424D02*
X0166200Y0190424D01*
X0166200Y0192023D02*
X0177200Y0192023D01*
X0177200Y0193621D02*
X0166200Y0193621D01*
X0164603Y0195220D02*
X0178714Y0195220D01*
X0184885Y0195220D02*
X0196650Y0195220D01*
X0196650Y0193621D02*
X0186400Y0193621D01*
X0186400Y0192023D02*
X0196650Y0192023D01*
X0196650Y0190424D02*
X0186400Y0190424D01*
X0185331Y0188826D02*
X0196650Y0188826D01*
X0196650Y0187227D02*
X0183733Y0187227D01*
X0184477Y0185629D02*
X0196650Y0185629D01*
X0196650Y0184030D02*
X0186075Y0184030D01*
X0186400Y0182432D02*
X0196650Y0182432D01*
X0196650Y0180833D02*
X0186400Y0180833D01*
X0185740Y0179235D02*
X0196650Y0179235D01*
X0196650Y0177636D02*
X0184142Y0177636D01*
X0179458Y0177636D02*
X0146200Y0177636D01*
X0146200Y0176800D02*
X0146200Y0178623D01*
X0143623Y0181200D01*
X0141800Y0181200D01*
X0141800Y0176800D01*
X0146200Y0176800D01*
X0141800Y0176800D01*
X0141800Y0176800D01*
X0141800Y0176800D01*
X0141800Y0172400D01*
X0143623Y0172400D01*
X0146200Y0174977D01*
X0146200Y0176800D01*
X0146200Y0176038D02*
X0160010Y0176038D01*
X0157934Y0174439D02*
X0145662Y0174439D01*
X0144063Y0172841D02*
X0157252Y0172841D01*
X0157200Y0171242D02*
X0003800Y0171242D01*
X0003800Y0169644D02*
X0016379Y0169644D01*
X0015361Y0168045D02*
X0003800Y0168045D01*
X0003800Y0166447D02*
X0015076Y0166447D01*
X0012441Y0164848D02*
X0003800Y0164848D01*
X0003800Y0163250D02*
X0011397Y0163250D01*
X0011126Y0161721D02*
X0015501Y0161721D01*
X0015501Y0157346D01*
X0015501Y0161721D01*
X0015501Y0161721D01*
X0011126Y0161721D01*
X0011126Y0161651D02*
X0003800Y0161651D01*
X0003800Y0160053D02*
X0011443Y0160053D01*
X0012581Y0158454D02*
X0003800Y0158454D01*
X0003800Y0156856D02*
X0077785Y0156856D01*
X0076186Y0158454D02*
X0035302Y0158454D01*
X0036360Y0160053D02*
X0074588Y0160053D01*
X0072989Y0161651D02*
X0036674Y0161651D01*
X0036418Y0163250D02*
X0071391Y0163250D01*
X0072154Y0166446D02*
X0081800Y0156800D01*
X0106800Y0156800D01*
X0110384Y0156856D02*
X0147400Y0156856D01*
X0147400Y0156800D02*
X0147400Y0154977D01*
X0149977Y0152400D01*
X0151800Y0152400D01*
X0153623Y0152400D01*
X0156200Y0154977D01*
X0156200Y0156800D01*
X0151800Y0156800D01*
X0151800Y0156800D01*
X0151800Y0152400D01*
X0151800Y0156800D01*
X0151800Y0156800D01*
X0151800Y0156800D01*
X0147400Y0156800D01*
X0147400Y0155257D02*
X0139565Y0155257D01*
X0138623Y0156200D02*
X0136800Y0156200D01*
X0136800Y0151800D01*
X0136800Y0151800D01*
X0141200Y0151800D01*
X0141200Y0153623D01*
X0138623Y0156200D01*
X0136800Y0156200D02*
X0134977Y0156200D01*
X0132400Y0153623D01*
X0132400Y0151800D01*
X0136800Y0151800D01*
X0136800Y0151800D01*
X0136800Y0151800D01*
X0136800Y0156200D01*
X0136800Y0155257D02*
X0136800Y0155257D01*
X0136800Y0153659D02*
X0136800Y0153659D01*
X0136800Y0152060D02*
X0136800Y0152060D01*
X0136800Y0151800D02*
X0132400Y0151800D01*
X0132400Y0149977D01*
X0134977Y0147400D01*
X0136800Y0147400D01*
X0138623Y0147400D01*
X0141200Y0149977D01*
X0141200Y0151800D01*
X0136800Y0151800D01*
X0136800Y0147400D01*
X0136800Y0151800D01*
X0136800Y0151800D01*
X0136800Y0150462D02*
X0136800Y0150462D01*
X0136800Y0148863D02*
X0136800Y0148863D01*
X0140086Y0148863D02*
X0196650Y0148863D01*
X0196650Y0147265D02*
X0100384Y0147265D01*
X0100384Y0145666D02*
X0111561Y0145666D01*
X0110160Y0144068D02*
X0099136Y0144068D01*
X0096800Y0146800D02*
X0026800Y0146800D01*
X0026800Y0141800D02*
X0086800Y0141800D01*
X0091458Y0137673D02*
X0112142Y0137673D01*
X0112500Y0136075D02*
X0091100Y0136075D01*
X0093229Y0134476D02*
X0110371Y0134476D01*
X0109667Y0132878D02*
X0093933Y0132878D01*
X0094000Y0131279D02*
X0109600Y0131279D01*
X0110099Y0129681D02*
X0093501Y0129681D01*
X0092188Y0128082D02*
X0111412Y0128082D01*
X0110780Y0124885D02*
X0092820Y0124885D01*
X0093300Y0124406D02*
X0092006Y0125700D01*
X0090315Y0126400D01*
X0083285Y0126400D01*
X0081594Y0125700D01*
X0080495Y0124600D01*
X0034069Y0124600D01*
X0033285Y0125384D01*
X0030315Y0125384D01*
X0028216Y0123285D01*
X0028216Y0120315D01*
X0030315Y0118216D01*
X0033285Y0118216D01*
X0034069Y0119000D01*
X0080495Y0119000D01*
X0081594Y0117900D01*
X0083285Y0117200D01*
X0090315Y0117200D01*
X0092006Y0117900D01*
X0093300Y0119194D01*
X0094000Y0120885D01*
X0094000Y0122715D01*
X0093300Y0124406D01*
X0093763Y0123287D02*
X0109837Y0123287D01*
X0109600Y0121688D02*
X0094000Y0121688D01*
X0093671Y0120090D02*
X0109929Y0120090D01*
X0111003Y0118491D02*
X0092597Y0118491D01*
X0092411Y0115294D02*
X0100225Y0115294D01*
X0100315Y0115384D02*
X0098216Y0113285D01*
X0098216Y0110315D01*
X0100315Y0108216D01*
X0103285Y0108216D01*
X0104069Y0109000D01*
X0110495Y0109000D01*
X0111594Y0107900D01*
X0113285Y0107200D01*
X0120315Y0107200D01*
X0122006Y0107900D01*
X0123300Y0109194D01*
X0124000Y0110885D01*
X0124000Y0112715D01*
X0123300Y0114406D01*
X0122006Y0115700D01*
X0120315Y0116400D01*
X0113285Y0116400D01*
X0111594Y0115700D01*
X0110495Y0114600D01*
X0104069Y0114600D01*
X0103285Y0115384D01*
X0100315Y0115384D01*
X0098627Y0113696D02*
X0093594Y0113696D01*
X0094000Y0112097D02*
X0098216Y0112097D01*
X0098216Y0110499D02*
X0093840Y0110499D01*
X0093006Y0108900D02*
X0099631Y0108900D01*
X0101800Y0111800D02*
X0116800Y0111800D01*
X0120561Y0107302D02*
X0188100Y0107302D01*
X0188100Y0105703D02*
X0121997Y0105703D01*
X0122006Y0105700D02*
X0120315Y0106400D01*
X0113285Y0106400D01*
X0111594Y0105700D01*
X0110300Y0104406D01*
X0109600Y0102715D01*
X0109600Y0100885D01*
X0110300Y0099194D01*
X0111594Y0097900D01*
X0113285Y0097200D01*
X0120315Y0097200D01*
X0122006Y0097900D01*
X0123300Y0099194D01*
X0124000Y0100885D01*
X0124000Y0102715D01*
X0123300Y0104406D01*
X0122006Y0105700D01*
X0123424Y0104105D02*
X0186936Y0104105D01*
X0185267Y0102506D02*
X0124000Y0102506D01*
X0124000Y0100908D02*
X0183597Y0100908D01*
X0181928Y0099309D02*
X0123347Y0099309D01*
X0121548Y0097711D02*
X0180258Y0097711D01*
X0178588Y0096112D02*
X0121010Y0096112D01*
X0120315Y0096400D02*
X0122006Y0095700D01*
X0123300Y0094406D01*
X0124000Y0092715D01*
X0124000Y0090885D01*
X0123300Y0089194D01*
X0122006Y0087900D01*
X0120315Y0087200D01*
X0113285Y0087200D01*
X0111594Y0087900D01*
X0110495Y0089000D01*
X0099069Y0089000D01*
X0098285Y0088216D01*
X0095315Y0088216D01*
X0093458Y0090073D01*
X0093163Y0089494D01*
X0092756Y0088934D01*
X0092266Y0088444D01*
X0091706Y0088037D01*
X0091089Y0087722D01*
X0090430Y0087508D01*
X0089746Y0087400D01*
X0086800Y0087400D01*
X0086800Y0091800D01*
X0086800Y0091800D01*
X0086800Y0096200D01*
X0089746Y0096200D01*
X0090430Y0096092D01*
X0091089Y0095878D01*
X0091706Y0095563D01*
X0092266Y0095156D01*
X0092756Y0094666D01*
X0093163Y0094106D01*
X0093458Y0093527D01*
X0095315Y0095384D01*
X0098285Y0095384D01*
X0099069Y0094600D01*
X0110495Y0094600D01*
X0111594Y0095700D01*
X0113285Y0096400D01*
X0120315Y0096400D01*
X0123192Y0094514D02*
X0176919Y0094514D01*
X0175249Y0092915D02*
X0123917Y0092915D01*
X0124000Y0091317D02*
X0173580Y0091317D01*
X0171910Y0089718D02*
X0123517Y0089718D01*
X0122225Y0088120D02*
X0170241Y0088120D01*
X0168571Y0086521D02*
X0069649Y0086521D01*
X0071181Y0088120D02*
X0081780Y0088120D01*
X0081894Y0088037D02*
X0081334Y0088444D01*
X0080844Y0088934D01*
X0080437Y0089494D01*
X0080122Y0090111D01*
X0079908Y0090770D01*
X0079800Y0091454D01*
X0079800Y0091800D01*
X0086800Y0091800D01*
X0086800Y0091800D01*
X0086800Y0091800D01*
X0086800Y0096200D01*
X0083854Y0096200D01*
X0083170Y0096092D01*
X0082511Y0095878D01*
X0081894Y0095563D01*
X0081334Y0095156D01*
X0080844Y0094666D01*
X0080437Y0094106D01*
X0080122Y0093489D01*
X0079908Y0092830D01*
X0079800Y0092146D01*
X0079800Y0091800D01*
X0086800Y0091800D01*
X0086800Y0087400D01*
X0083854Y0087400D01*
X0083170Y0087508D01*
X0082511Y0087722D01*
X0081894Y0088037D01*
X0083285Y0086400D02*
X0081594Y0085700D01*
X0080300Y0084406D01*
X0079600Y0082715D01*
X0079600Y0080885D01*
X0080300Y0079194D01*
X0081594Y0077900D01*
X0083285Y0077200D01*
X0090315Y0077200D01*
X0092006Y0077900D01*
X0093300Y0079194D01*
X0094000Y0080885D01*
X0094000Y0082715D01*
X0093300Y0084406D01*
X0092006Y0085700D01*
X0090315Y0086400D01*
X0083285Y0086400D01*
X0080817Y0084923D02*
X0071330Y0084923D01*
X0072088Y0083324D02*
X0079852Y0083324D01*
X0079600Y0081726D02*
X0067000Y0081726D01*
X0066600Y0081726D02*
X0055834Y0081726D01*
X0054236Y0083324D02*
X0061512Y0083324D01*
X0062270Y0084923D02*
X0052637Y0084923D01*
X0051039Y0086521D02*
X0063951Y0086521D01*
X0062419Y0088120D02*
X0049440Y0088120D01*
X0047842Y0089718D02*
X0061493Y0089718D01*
X0061100Y0091317D02*
X0046243Y0091317D01*
X0044645Y0092915D02*
X0061100Y0092915D01*
X0061754Y0094514D02*
X0043046Y0094514D01*
X0041448Y0096112D02*
X0063051Y0096112D01*
X0070549Y0096112D02*
X0083299Y0096112D01*
X0082052Y0097711D02*
X0039849Y0097711D01*
X0036800Y0096800D02*
X0061500Y0072100D01*
X0061500Y0069605D01*
X0064605Y0066500D01*
X0067100Y0066500D01*
X0071800Y0061800D01*
X0086800Y0061800D01*
X0091638Y0057748D02*
X0111962Y0057748D01*
X0112680Y0056149D02*
X0090920Y0056149D01*
X0093363Y0059346D02*
X0110237Y0059346D01*
X0109600Y0060945D02*
X0094000Y0060945D01*
X0094000Y0062543D02*
X0109600Y0062543D01*
X0110191Y0064142D02*
X0093409Y0064142D01*
X0091907Y0065740D02*
X0111693Y0065740D01*
X0112511Y0067722D02*
X0113170Y0067508D01*
X0113854Y0067400D01*
X0116800Y0067400D01*
X0119746Y0067400D01*
X0120430Y0067508D01*
X0121089Y0067722D01*
X0121706Y0068037D01*
X0122266Y0068444D01*
X0122756Y0068934D01*
X0123163Y0069494D01*
X0123478Y0070111D01*
X0123692Y0070770D01*
X0123800Y0071454D01*
X0123800Y0071800D01*
X0123800Y0072146D01*
X0123692Y0072830D01*
X0123478Y0073489D01*
X0123163Y0074106D01*
X0122756Y0074666D01*
X0122266Y0075156D01*
X0121706Y0075563D01*
X0121089Y0075878D01*
X0120430Y0076092D01*
X0119746Y0076200D01*
X0116800Y0076200D01*
X0116800Y0071800D01*
X0116800Y0071800D01*
X0123800Y0071800D01*
X0116800Y0071800D01*
X0116800Y0071800D01*
X0116800Y0067400D01*
X0116800Y0071800D01*
X0116800Y0071800D01*
X0116800Y0071800D01*
X0109800Y0071800D01*
X0109800Y0072146D01*
X0109908Y0072830D01*
X0110122Y0073489D01*
X0110437Y0074106D01*
X0110844Y0074666D01*
X0111334Y0075156D01*
X0111894Y0075563D01*
X0112511Y0075878D01*
X0113170Y0076092D01*
X0113854Y0076200D01*
X0116800Y0076200D01*
X0116800Y0071800D01*
X0109800Y0071800D01*
X0109800Y0071454D01*
X0109908Y0070770D01*
X0110122Y0070111D01*
X0110437Y0069494D01*
X0110844Y0068934D01*
X0111334Y0068444D01*
X0111894Y0068037D01*
X0112511Y0067722D01*
X0110841Y0068937D02*
X0093043Y0068937D01*
X0093300Y0069194D02*
X0094000Y0070885D01*
X0094000Y0072715D01*
X0093300Y0074406D01*
X0092006Y0075700D01*
X0090315Y0076400D01*
X0083285Y0076400D01*
X0081594Y0075700D01*
X0080300Y0074406D01*
X0079600Y0072715D01*
X0079600Y0070885D01*
X0080300Y0069194D01*
X0081594Y0067900D01*
X0083285Y0067200D01*
X0090315Y0067200D01*
X0092006Y0067900D01*
X0093300Y0069194D01*
X0093855Y0070536D02*
X0109984Y0070536D01*
X0109800Y0072134D02*
X0094000Y0072134D01*
X0093578Y0073733D02*
X0110247Y0073733D01*
X0111575Y0075332D02*
X0092374Y0075332D01*
X0092634Y0078529D02*
X0110966Y0078529D01*
X0111594Y0077900D02*
X0113285Y0077200D01*
X0120315Y0077200D01*
X0122006Y0077900D01*
X0123300Y0079194D01*
X0124000Y0080885D01*
X0124000Y0082715D01*
X0123300Y0084406D01*
X0122006Y0085700D01*
X0120315Y0086400D01*
X0113285Y0086400D01*
X0111594Y0085700D01*
X0110300Y0084406D01*
X0109600Y0082715D01*
X0109600Y0080885D01*
X0110300Y0079194D01*
X0111594Y0077900D01*
X0109914Y0080127D02*
X0093686Y0080127D01*
X0094000Y0081726D02*
X0109600Y0081726D01*
X0109852Y0083324D02*
X0093748Y0083324D01*
X0092783Y0084923D02*
X0110817Y0084923D01*
X0111375Y0088120D02*
X0091820Y0088120D01*
X0093277Y0089718D02*
X0093813Y0089718D01*
X0096800Y0091800D02*
X0116800Y0091800D01*
X0112590Y0096112D02*
X0090301Y0096112D01*
X0091548Y0097711D02*
X0112052Y0097711D01*
X0110253Y0099309D02*
X0093347Y0099309D01*
X0094000Y0100908D02*
X0109600Y0100908D01*
X0109600Y0102506D02*
X0094000Y0102506D01*
X0093424Y0104105D02*
X0110176Y0104105D01*
X0111603Y0105703D02*
X0091997Y0105703D01*
X0090561Y0107302D02*
X0113039Y0107302D01*
X0110594Y0108900D02*
X0103969Y0108900D01*
X0103375Y0115294D02*
X0111189Y0115294D01*
X0116800Y0121800D02*
X0186800Y0121800D01*
X0193800Y0116800D01*
X0190442Y0112097D02*
X0124000Y0112097D01*
X0123840Y0110499D02*
X0189438Y0110499D01*
X0188500Y0108900D02*
X0123006Y0108900D01*
X0123594Y0113696D02*
X0188916Y0113696D01*
X0188254Y0115294D02*
X0122411Y0115294D01*
X0122597Y0118491D02*
X0186615Y0118491D01*
X0188100Y0116893D02*
X0025800Y0116893D01*
X0025178Y0118491D02*
X0030040Y0118491D01*
X0028441Y0120090D02*
X0025016Y0120090D01*
X0025648Y0121688D02*
X0028216Y0121688D01*
X0028218Y0123287D02*
X0027247Y0123287D01*
X0028845Y0124885D02*
X0029816Y0124885D01*
X0030444Y0126484D02*
X0188100Y0126484D01*
X0188423Y0124885D02*
X0122820Y0124885D01*
X0122188Y0128082D02*
X0187187Y0128082D01*
X0186800Y0131800D02*
X0116800Y0131800D01*
X0121100Y0136075D02*
X0188100Y0136075D01*
X0187760Y0137673D02*
X0121458Y0137673D01*
X0116800Y0141800D02*
X0186800Y0141800D01*
X0193800Y0136800D01*
X0188593Y0134476D02*
X0187655Y0134476D01*
X0186800Y0131800D02*
X0193800Y0126800D01*
X0192591Y0142469D02*
X0190681Y0142469D01*
X0188492Y0144068D02*
X0196650Y0144068D01*
X0196650Y0145666D02*
X0122039Y0145666D01*
X0121089Y0147722D02*
X0121706Y0148037D01*
X0122266Y0148444D01*
X0122756Y0148934D01*
X0123163Y0149494D01*
X0123478Y0150111D01*
X0123692Y0150770D01*
X0123800Y0151454D01*
X0123800Y0151800D01*
X0123800Y0152146D01*
X0123692Y0152830D01*
X0123478Y0153489D01*
X0123163Y0154106D01*
X0122756Y0154666D01*
X0122266Y0155156D01*
X0121706Y0155563D01*
X0121089Y0155878D01*
X0120430Y0156092D01*
X0119746Y0156200D01*
X0116800Y0156200D01*
X0116800Y0151800D01*
X0116800Y0151800D01*
X0123800Y0151800D01*
X0116800Y0151800D01*
X0116800Y0151800D01*
X0116800Y0147400D01*
X0119746Y0147400D01*
X0120430Y0147508D01*
X0121089Y0147722D01*
X0122686Y0148863D02*
X0133514Y0148863D01*
X0132400Y0150462D02*
X0123592Y0150462D01*
X0123800Y0152060D02*
X0132400Y0152060D01*
X0132436Y0153659D02*
X0123391Y0153659D01*
X0122127Y0155257D02*
X0134035Y0155257D01*
X0133641Y0158454D02*
X0122559Y0158454D01*
X0116800Y0156200D02*
X0116800Y0151800D01*
X0116800Y0151800D01*
X0116800Y0151800D01*
X0109800Y0151800D01*
X0109800Y0152146D01*
X0109908Y0152830D01*
X0110122Y0153489D01*
X0110437Y0154106D01*
X0110844Y0154666D01*
X0111334Y0155156D01*
X0111894Y0155563D01*
X0112511Y0155878D01*
X0113170Y0156092D01*
X0113854Y0156200D01*
X0116800Y0156200D01*
X0116800Y0155257D02*
X0116800Y0155257D01*
X0116800Y0153659D02*
X0116800Y0153659D01*
X0116800Y0152060D02*
X0116800Y0152060D01*
X0116800Y0151800D02*
X0109800Y0151800D01*
X0109800Y0151454D01*
X0109908Y0150770D01*
X0110122Y0150111D01*
X0110437Y0149494D01*
X0110844Y0148934D01*
X0111334Y0148444D01*
X0111894Y0148037D01*
X0112511Y0147722D01*
X0113170Y0147508D01*
X0113854Y0147400D01*
X0116800Y0147400D01*
X0116800Y0151800D01*
X0116800Y0150462D02*
X0116800Y0150462D01*
X0116800Y0148863D02*
X0116800Y0148863D01*
X0110914Y0148863D02*
X0099806Y0148863D01*
X0094000Y0152060D02*
X0109800Y0152060D01*
X0110008Y0150462D02*
X0093825Y0150462D01*
X0093609Y0153659D02*
X0104873Y0153659D01*
X0108727Y0153659D02*
X0110209Y0153659D01*
X0110326Y0155257D02*
X0111473Y0155257D01*
X0111041Y0158454D02*
X0110215Y0158454D01*
X0110743Y0164848D02*
X0103821Y0164848D01*
X0101800Y0161800D02*
X0116800Y0161800D01*
X0136800Y0161800D01*
X0151800Y0161800D01*
X0161800Y0171800D01*
X0165666Y0174439D02*
X0196650Y0174439D01*
X0196650Y0172841D02*
X0166348Y0172841D01*
X0166400Y0171242D02*
X0196650Y0171242D01*
X0196650Y0169644D02*
X0165886Y0169644D01*
X0164551Y0168045D02*
X0196650Y0168045D01*
X0196650Y0166447D02*
X0160406Y0166447D01*
X0158808Y0164848D02*
X0196650Y0164848D01*
X0196650Y0163250D02*
X0157209Y0163250D01*
X0155611Y0161651D02*
X0196650Y0161651D01*
X0196650Y0160053D02*
X0195053Y0160053D01*
X0193705Y0161400D02*
X0189895Y0161400D01*
X0187200Y0158705D01*
X0187200Y0154895D01*
X0189895Y0152200D01*
X0193705Y0152200D01*
X0196400Y0154895D01*
X0196400Y0158705D01*
X0193705Y0161400D01*
X0196400Y0158454D02*
X0196650Y0158454D01*
X0196650Y0156856D02*
X0196400Y0156856D01*
X0196400Y0155257D02*
X0196650Y0155257D01*
X0196650Y0153659D02*
X0195164Y0153659D01*
X0196650Y0152060D02*
X0141200Y0152060D01*
X0141200Y0150462D02*
X0196650Y0150462D01*
X0196650Y0142469D02*
X0195009Y0142469D01*
X0188436Y0153659D02*
X0154881Y0153659D01*
X0156200Y0155257D02*
X0187200Y0155257D01*
X0187200Y0156856D02*
X0156200Y0156856D01*
X0156200Y0158454D02*
X0187200Y0158454D01*
X0188547Y0160053D02*
X0154770Y0160053D01*
X0150888Y0164848D02*
X0140257Y0164848D01*
X0139959Y0158454D02*
X0147400Y0158454D01*
X0148719Y0153659D02*
X0141164Y0153659D01*
X0151800Y0153659D02*
X0151800Y0153659D01*
X0151800Y0155257D02*
X0151800Y0155257D01*
X0152487Y0166447D02*
X0076113Y0166447D01*
X0074515Y0168045D02*
X0154085Y0168045D01*
X0155684Y0169644D02*
X0031221Y0169644D01*
X0027950Y0166446D02*
X0072154Y0166446D01*
X0077712Y0164848D02*
X0080743Y0164848D01*
X0079821Y0163250D02*
X0079310Y0163250D01*
X0079383Y0155257D02*
X0003800Y0155257D01*
X0003800Y0153659D02*
X0019699Y0153659D01*
X0018100Y0152060D02*
X0003800Y0152060D01*
X0003800Y0150462D02*
X0016502Y0150462D01*
X0014903Y0148863D02*
X0003800Y0148863D01*
X0003800Y0147265D02*
X0014000Y0147265D01*
X0014000Y0145666D02*
X0003800Y0145666D01*
X0003800Y0144068D02*
X0014000Y0144068D01*
X0014000Y0142469D02*
X0008009Y0142469D01*
X0010791Y0140870D02*
X0014000Y0140870D01*
X0014000Y0139272D02*
X0011946Y0139272D01*
X0012500Y0137673D02*
X0013714Y0137673D01*
X0016800Y0136800D02*
X0011800Y0131800D01*
X0006800Y0136800D01*
X0005591Y0142469D02*
X0003800Y0142469D01*
X0016800Y0146800D02*
X0016800Y0136800D01*
X0021800Y0136800D02*
X0021800Y0131800D01*
X0011800Y0121800D01*
X0006800Y0126800D01*
X0006800Y0116800D02*
X0012014Y0116800D01*
X0015814Y0113000D01*
X0085600Y0113000D01*
X0086800Y0111800D01*
X0083039Y0107302D02*
X0015258Y0107302D01*
X0013660Y0108900D02*
X0080594Y0108900D01*
X0081603Y0105703D02*
X0016857Y0105703D01*
X0016800Y0101800D02*
X0086800Y0101800D01*
X0086800Y0096112D02*
X0086800Y0096112D01*
X0086800Y0094514D02*
X0086800Y0094514D01*
X0086800Y0092915D02*
X0086800Y0092915D01*
X0086800Y0091317D02*
X0086800Y0091317D01*
X0086800Y0089718D02*
X0086800Y0089718D01*
X0086800Y0088120D02*
X0086800Y0088120D01*
X0080323Y0089718D02*
X0072107Y0089718D01*
X0072500Y0091317D02*
X0079822Y0091317D01*
X0079936Y0092915D02*
X0072500Y0092915D01*
X0071846Y0094514D02*
X0080733Y0094514D01*
X0092867Y0094514D02*
X0094445Y0094514D01*
X0079914Y0080127D02*
X0072039Y0080127D01*
X0071222Y0078529D02*
X0080966Y0078529D01*
X0081226Y0075332D02*
X0071329Y0075332D01*
X0072169Y0073733D02*
X0080022Y0073733D01*
X0079600Y0072134D02*
X0072500Y0072134D01*
X0072446Y0070536D02*
X0079745Y0070536D01*
X0080557Y0068937D02*
X0071784Y0068937D01*
X0070400Y0067339D02*
X0082949Y0067339D01*
X0081693Y0065740D02*
X0071819Y0065740D01*
X0067097Y0062543D02*
X0065016Y0062543D01*
X0066615Y0060945D02*
X0068695Y0060945D01*
X0068213Y0059346D02*
X0070407Y0059346D01*
X0069812Y0057748D02*
X0081962Y0057748D01*
X0082680Y0056149D02*
X0071410Y0056149D01*
X0066688Y0052952D02*
X0040384Y0052952D01*
X0040384Y0051354D02*
X0068286Y0051354D01*
X0069885Y0049755D02*
X0040384Y0049755D01*
X0036800Y0051800D02*
X0031800Y0056800D01*
X0006800Y0056800D01*
X0010716Y0060945D02*
X0058695Y0060945D01*
X0057097Y0062543D02*
X0054049Y0062543D01*
X0051800Y0066800D02*
X0036800Y0066800D01*
X0031800Y0066800D01*
X0021800Y0076800D01*
X0006800Y0076800D01*
X0010196Y0072134D02*
X0022506Y0072134D01*
X0024104Y0070536D02*
X0010842Y0070536D01*
X0011884Y0068937D02*
X0025703Y0068937D01*
X0027301Y0067339D02*
X0012283Y0067339D01*
X0012201Y0065740D02*
X0028900Y0065740D01*
X0029426Y0065214D02*
X0029426Y0065214D01*
X0030900Y0064142D02*
X0011618Y0064142D01*
X0010298Y0062543D02*
X0034551Y0062543D01*
X0032969Y0059346D02*
X0060294Y0059346D01*
X0061892Y0057748D02*
X0034812Y0057748D01*
X0036410Y0056149D02*
X0063491Y0056149D01*
X0065089Y0054551D02*
X0040046Y0054551D01*
X0039049Y0062543D02*
X0049551Y0062543D01*
X0056000Y0067600D02*
X0071800Y0051800D01*
X0086800Y0051800D01*
X0101800Y0051800D01*
X0106800Y0046800D01*
X0108914Y0049755D02*
X0110068Y0049755D01*
X0110384Y0048157D02*
X0111338Y0048157D01*
X0110384Y0046558D02*
X0147721Y0046558D01*
X0146052Y0044960D02*
X0122746Y0044960D01*
X0122262Y0048157D02*
X0149391Y0048157D01*
X0148715Y0049755D02*
X0151060Y0049755D01*
X0150383Y0051354D02*
X0152730Y0051354D01*
X0152052Y0052952D02*
X0154399Y0052952D01*
X0153722Y0054551D02*
X0156069Y0054551D01*
X0155391Y0056149D02*
X0157738Y0056149D01*
X0157061Y0057748D02*
X0159408Y0057748D01*
X0158731Y0059346D02*
X0161078Y0059346D01*
X0160400Y0060945D02*
X0162747Y0060945D01*
X0162070Y0062543D02*
X0164417Y0062543D01*
X0163739Y0064142D02*
X0166086Y0064142D01*
X0165409Y0065740D02*
X0167756Y0065740D01*
X0167078Y0067339D02*
X0169425Y0067339D01*
X0168748Y0068937D02*
X0171095Y0068937D01*
X0170417Y0070536D02*
X0172764Y0070536D01*
X0172087Y0072134D02*
X0174434Y0072134D01*
X0173757Y0073733D02*
X0176104Y0073733D01*
X0175426Y0075332D02*
X0177773Y0075332D01*
X0177096Y0076930D02*
X0179443Y0076930D01*
X0178765Y0078529D02*
X0181112Y0078529D01*
X0180435Y0080127D02*
X0182782Y0080127D01*
X0182104Y0081726D02*
X0184451Y0081726D01*
X0183774Y0083324D02*
X0186121Y0083324D01*
X0185443Y0084923D02*
X0187790Y0084923D01*
X0188100Y0086521D02*
X0187113Y0086521D01*
X0184024Y0091317D02*
X0181677Y0091317D01*
X0182355Y0089718D02*
X0180008Y0089718D01*
X0180685Y0088120D02*
X0178338Y0088120D01*
X0179016Y0086521D02*
X0176669Y0086521D01*
X0177346Y0084923D02*
X0174999Y0084923D01*
X0175676Y0083324D02*
X0173329Y0083324D01*
X0174007Y0081726D02*
X0171660Y0081726D01*
X0172337Y0080127D02*
X0169990Y0080127D01*
X0170668Y0078529D02*
X0168321Y0078529D01*
X0168998Y0076930D02*
X0166651Y0076930D01*
X0167329Y0075332D02*
X0164982Y0075332D01*
X0165659Y0073733D02*
X0163312Y0073733D01*
X0163990Y0072134D02*
X0161643Y0072134D01*
X0162320Y0070536D02*
X0159973Y0070536D01*
X0160650Y0068937D02*
X0158303Y0068937D01*
X0158981Y0067339D02*
X0156634Y0067339D01*
X0157311Y0065740D02*
X0154964Y0065740D01*
X0155642Y0064142D02*
X0153295Y0064142D01*
X0153972Y0062543D02*
X0151625Y0062543D01*
X0152303Y0060945D02*
X0149956Y0060945D01*
X0150633Y0059346D02*
X0148216Y0059346D01*
X0148964Y0057748D02*
X0121638Y0057748D01*
X0120920Y0056149D02*
X0147294Y0056149D01*
X0146800Y0061800D02*
X0116800Y0061800D01*
X0121907Y0065740D02*
X0146867Y0065740D01*
X0148536Y0067339D02*
X0090650Y0067339D01*
X0102476Y0054551D02*
X0110445Y0054551D01*
X0109698Y0052952D02*
X0104607Y0052952D01*
X0106206Y0051354D02*
X0109600Y0051354D01*
X0110029Y0044960D02*
X0110854Y0044960D01*
X0109868Y0043361D02*
X0108430Y0043361D01*
X0109600Y0041763D02*
X0105384Y0041763D01*
X0105233Y0040164D02*
X0109899Y0040164D01*
X0110929Y0038566D02*
X0103635Y0038566D01*
X0099965Y0038566D02*
X0092671Y0038566D01*
X0092337Y0035369D02*
X0111263Y0035369D01*
X0111594Y0035700D02*
X0110300Y0034406D01*
X0109600Y0032715D01*
X0109600Y0030885D01*
X0110300Y0029194D01*
X0111594Y0027900D01*
X0113285Y0027200D01*
X0120315Y0027200D01*
X0122006Y0027900D01*
X0123300Y0029194D01*
X0124000Y0030885D01*
X0124000Y0032715D01*
X0123300Y0034406D01*
X0122006Y0035700D01*
X0120315Y0036400D01*
X0113285Y0036400D01*
X0111594Y0035700D01*
X0110037Y0033770D02*
X0093563Y0033770D01*
X0094000Y0032172D02*
X0109600Y0032172D01*
X0109729Y0030573D02*
X0093871Y0030573D01*
X0093080Y0028975D02*
X0110520Y0028975D01*
X0112860Y0027376D02*
X0090740Y0027376D01*
X0082860Y0027376D02*
X0068882Y0027376D01*
X0070480Y0028975D02*
X0080520Y0028975D01*
X0079729Y0030573D02*
X0079533Y0030573D01*
X0076800Y0031800D02*
X0086800Y0041800D01*
X0101800Y0041800D01*
X0099891Y0044960D02*
X0092746Y0044960D01*
X0092262Y0048157D02*
X0101483Y0048157D01*
X0103082Y0046558D02*
X0051001Y0046558D01*
X0049403Y0048157D02*
X0081338Y0048157D01*
X0080854Y0044960D02*
X0069863Y0044960D01*
X0068623Y0046200D02*
X0066800Y0046200D01*
X0066800Y0041800D01*
X0066800Y0041800D01*
X0071200Y0041800D01*
X0071200Y0043623D01*
X0068623Y0046200D01*
X0066800Y0046200D02*
X0064977Y0046200D01*
X0062400Y0043623D01*
X0062400Y0041800D01*
X0066800Y0041800D01*
X0066800Y0041800D01*
X0066800Y0041800D01*
X0066800Y0046200D01*
X0066800Y0044960D02*
X0066800Y0044960D01*
X0066800Y0043361D02*
X0066800Y0043361D01*
X0066800Y0041800D02*
X0062400Y0041800D01*
X0062400Y0039977D01*
X0064977Y0037400D01*
X0066800Y0037400D01*
X0068623Y0037400D01*
X0071200Y0039977D01*
X0071200Y0041800D01*
X0066800Y0041800D01*
X0066800Y0037400D01*
X0066800Y0041800D01*
X0066800Y0041800D01*
X0066800Y0041763D02*
X0066800Y0041763D01*
X0066800Y0040164D02*
X0066800Y0040164D01*
X0066800Y0038566D02*
X0066800Y0038566D01*
X0069788Y0038566D02*
X0079606Y0038566D01*
X0079899Y0040164D02*
X0071200Y0040164D01*
X0071200Y0041763D02*
X0079600Y0041763D01*
X0079868Y0043361D02*
X0071200Y0043361D01*
X0063737Y0044960D02*
X0053709Y0044960D01*
X0055308Y0043361D02*
X0062400Y0043361D01*
X0062400Y0041763D02*
X0055384Y0041763D01*
X0055233Y0040164D02*
X0062400Y0040164D01*
X0063812Y0038566D02*
X0053635Y0038566D01*
X0049965Y0038566D02*
X0012009Y0038566D01*
X0011154Y0040164D02*
X0048367Y0040164D01*
X0047877Y0041763D02*
X0009534Y0041763D01*
X0011422Y0043361D02*
X0046279Y0043361D01*
X0046800Y0046800D02*
X0051800Y0041800D01*
X0046800Y0046800D02*
X0006800Y0046800D01*
X0007000Y0036967D02*
X0078007Y0036967D01*
X0076409Y0035369D02*
X0069737Y0035369D01*
X0066800Y0031800D02*
X0076800Y0031800D01*
X0085927Y0036967D02*
X0196650Y0036967D01*
X0196650Y0035369D02*
X0122337Y0035369D01*
X0123563Y0033770D02*
X0196650Y0033770D01*
X0196650Y0032172D02*
X0124000Y0032172D01*
X0123871Y0030573D02*
X0196650Y0030573D01*
X0196650Y0028975D02*
X0123080Y0028975D01*
X0120740Y0027376D02*
X0196650Y0027376D01*
X0196650Y0025778D02*
X0056400Y0025778D01*
X0056400Y0024895D02*
X0053705Y0022200D01*
X0049895Y0022200D01*
X0047200Y0024895D01*
X0047200Y0028705D01*
X0049895Y0031400D01*
X0053705Y0031400D01*
X0056400Y0028705D01*
X0056400Y0024895D01*
X0055685Y0024179D02*
X0196650Y0024179D01*
X0196650Y0022581D02*
X0054086Y0022581D01*
X0056400Y0027376D02*
X0064718Y0027376D01*
X0063120Y0028975D02*
X0056131Y0028975D01*
X0054532Y0030573D02*
X0062200Y0030573D01*
X0062200Y0032172D02*
X0009787Y0032172D01*
X0011088Y0030573D02*
X0034068Y0030573D01*
X0034895Y0031400D02*
X0032200Y0028705D01*
X0032200Y0024895D01*
X0034895Y0022200D01*
X0038705Y0022200D01*
X0041400Y0024895D01*
X0041400Y0028705D01*
X0038705Y0031400D01*
X0034895Y0031400D01*
X0032469Y0028975D02*
X0012069Y0028975D01*
X0012500Y0027376D02*
X0032200Y0027376D01*
X0032200Y0025778D02*
X0012500Y0025778D01*
X0011884Y0024179D02*
X0032915Y0024179D01*
X0034514Y0022581D02*
X0010642Y0022581D01*
X0010679Y0020982D02*
X0104477Y0020982D01*
X0104895Y0021400D02*
X0102200Y0018705D01*
X0102200Y0014895D01*
X0104895Y0012200D01*
X0108705Y0012200D01*
X0111400Y0014895D01*
X0111400Y0018705D01*
X0108705Y0021400D01*
X0104895Y0021400D01*
X0102878Y0019384D02*
X0011899Y0019384D01*
X0012500Y0017785D02*
X0102200Y0017785D01*
X0102200Y0016187D02*
X0095120Y0016187D01*
X0095383Y0015995D02*
X0094683Y0016504D01*
X0093911Y0016897D01*
X0093088Y0017165D01*
X0092233Y0017300D01*
X0092000Y0017300D01*
X0092000Y0012000D01*
X0091600Y0012000D01*
X0091600Y0017300D01*
X0091367Y0017300D01*
X0090512Y0017165D01*
X0089689Y0016897D01*
X0088917Y0016504D01*
X0088217Y0015995D01*
X0087605Y0015383D01*
X0087096Y0014683D01*
X0086703Y0013911D01*
X0086435Y0013088D01*
X0086300Y0012233D01*
X0086300Y0012000D01*
X0091600Y0012000D01*
X0091600Y0011600D01*
X0086300Y0011600D01*
X0086300Y0011367D01*
X0086435Y0010512D01*
X0086703Y0009689D01*
X0087096Y0008917D01*
X0087605Y0008217D01*
X0088217Y0007605D01*
X0088917Y0007096D01*
X0089689Y0006703D01*
X0090512Y0006435D01*
X0091367Y0006300D01*
X0091600Y0006300D01*
X0091600Y0011600D01*
X0092000Y0011600D01*
X0092000Y0012000D01*
X0097300Y0012000D01*
X0097300Y0012233D01*
X0097165Y0013088D01*
X0096897Y0013911D01*
X0096504Y0014683D01*
X0095995Y0015383D01*
X0095383Y0015995D01*
X0096552Y0014588D02*
X0102507Y0014588D01*
X0104105Y0012990D02*
X0097180Y0012990D01*
X0097300Y0011600D02*
X0092000Y0011600D01*
X0092000Y0006300D01*
X0092233Y0006300D01*
X0093088Y0006435D01*
X0093911Y0006703D01*
X0094683Y0007096D01*
X0095383Y0007605D01*
X0095995Y0008217D01*
X0096504Y0008917D01*
X0096897Y0009689D01*
X0097165Y0010512D01*
X0097300Y0011367D01*
X0097300Y0011600D01*
X0097300Y0011391D02*
X0196650Y0011391D01*
X0196650Y0009793D02*
X0096931Y0009793D01*
X0095972Y0008194D02*
X0196650Y0008194D01*
X0196650Y0006596D02*
X0093581Y0006596D01*
X0092000Y0006596D02*
X0091600Y0006596D01*
X0090019Y0006596D02*
X0074130Y0006596D01*
X0075029Y0006968D02*
X0076632Y0008571D01*
X0077500Y0010666D01*
X0077500Y0012934D01*
X0076632Y0015029D01*
X0075029Y0016632D01*
X0072934Y0017500D01*
X0070666Y0017500D01*
X0068571Y0016632D01*
X0066968Y0015029D01*
X0066100Y0012934D01*
X0066100Y0010666D01*
X0066968Y0008571D01*
X0068571Y0006968D01*
X0070666Y0006100D01*
X0072934Y0006100D01*
X0075029Y0006968D01*
X0076255Y0008194D02*
X0087628Y0008194D01*
X0086669Y0009793D02*
X0077138Y0009793D01*
X0077500Y0011391D02*
X0086300Y0011391D01*
X0086420Y0012990D02*
X0077477Y0012990D01*
X0076815Y0014588D02*
X0087048Y0014588D01*
X0088480Y0016187D02*
X0075474Y0016187D01*
X0068126Y0016187D02*
X0055120Y0016187D01*
X0055383Y0015995D02*
X0054683Y0016504D01*
X0053911Y0016897D01*
X0053088Y0017165D01*
X0052233Y0017300D01*
X0052000Y0017300D01*
X0052000Y0012000D01*
X0051600Y0012000D01*
X0051600Y0017300D01*
X0051367Y0017300D01*
X0050512Y0017165D01*
X0049689Y0016897D01*
X0048917Y0016504D01*
X0048217Y0015995D01*
X0047605Y0015383D01*
X0047096Y0014683D01*
X0046703Y0013911D01*
X0046435Y0013088D01*
X0046300Y0012233D01*
X0046300Y0012000D01*
X0051600Y0012000D01*
X0051600Y0011600D01*
X0046300Y0011600D01*
X0046300Y0011367D01*
X0046435Y0010512D01*
X0046703Y0009689D01*
X0047096Y0008917D01*
X0047605Y0008217D01*
X0048217Y0007605D01*
X0048917Y0007096D01*
X0049689Y0006703D01*
X0050512Y0006435D01*
X0051367Y0006300D01*
X0051600Y0006300D01*
X0051600Y0011600D01*
X0052000Y0011600D01*
X0052000Y0012000D01*
X0057300Y0012000D01*
X0057300Y0012233D01*
X0057165Y0013088D01*
X0056897Y0013911D01*
X0056504Y0014683D01*
X0055995Y0015383D01*
X0055383Y0015995D01*
X0056552Y0014588D02*
X0066785Y0014588D01*
X0066123Y0012990D02*
X0057180Y0012990D01*
X0057300Y0011600D02*
X0052000Y0011600D01*
X0052000Y0006300D01*
X0052233Y0006300D01*
X0053088Y0006435D01*
X0053911Y0006703D01*
X0054683Y0007096D01*
X0055383Y0007605D01*
X0055995Y0008217D01*
X0056504Y0008917D01*
X0056897Y0009689D01*
X0057165Y0010512D01*
X0057300Y0011367D01*
X0057300Y0011600D01*
X0057300Y0011391D02*
X0066100Y0011391D01*
X0066462Y0009793D02*
X0056931Y0009793D01*
X0055972Y0008194D02*
X0067345Y0008194D01*
X0069470Y0006596D02*
X0053581Y0006596D01*
X0052000Y0006596D02*
X0051600Y0006596D01*
X0050019Y0006596D02*
X0034130Y0006596D01*
X0035029Y0006968D02*
X0036632Y0008571D01*
X0037500Y0010666D01*
X0037500Y0012934D01*
X0036632Y0015029D01*
X0035029Y0016632D01*
X0032934Y0017500D01*
X0030666Y0017500D01*
X0028571Y0016632D01*
X0026968Y0015029D01*
X0026100Y0012934D01*
X0026100Y0010666D01*
X0026968Y0008571D01*
X0028571Y0006968D01*
X0030666Y0006100D01*
X0032934Y0006100D01*
X0035029Y0006968D01*
X0036255Y0008194D02*
X0047628Y0008194D01*
X0046669Y0009793D02*
X0037138Y0009793D01*
X0037500Y0011391D02*
X0046300Y0011391D01*
X0046420Y0012990D02*
X0037477Y0012990D01*
X0036815Y0014588D02*
X0047048Y0014588D01*
X0048480Y0016187D02*
X0035474Y0016187D01*
X0039086Y0022581D02*
X0049514Y0022581D01*
X0047915Y0024179D02*
X0040685Y0024179D01*
X0041400Y0025778D02*
X0047200Y0025778D01*
X0047200Y0027376D02*
X0041400Y0027376D01*
X0041131Y0028975D02*
X0047469Y0028975D01*
X0049068Y0030573D02*
X0039532Y0030573D01*
X0028126Y0016187D02*
X0012500Y0016187D01*
X0012053Y0014588D02*
X0026785Y0014588D01*
X0026123Y0012990D02*
X0011051Y0012990D01*
X0008637Y0011391D02*
X0026100Y0011391D01*
X0026462Y0009793D02*
X0003800Y0009793D01*
X0003800Y0011391D02*
X0004963Y0011391D01*
X0003800Y0008194D02*
X0027345Y0008194D01*
X0029470Y0006596D02*
X0003800Y0006596D01*
X0003800Y0004997D02*
X0196650Y0004997D01*
X0196650Y0012990D02*
X0174212Y0012990D01*
X0173623Y0012400D02*
X0176200Y0014977D01*
X0176200Y0016800D01*
X0176200Y0018623D01*
X0173623Y0021200D01*
X0171800Y0021200D01*
X0171800Y0016800D01*
X0176200Y0016800D01*
X0171800Y0016800D01*
X0171800Y0016800D01*
X0171800Y0016800D01*
X0171800Y0012400D01*
X0173623Y0012400D01*
X0171800Y0012400D02*
X0171800Y0016800D01*
X0171800Y0016800D01*
X0171800Y0016800D01*
X0167400Y0016800D01*
X0167400Y0018623D01*
X0169977Y0021200D01*
X0171800Y0021200D01*
X0171800Y0016800D01*
X0167400Y0016800D01*
X0167400Y0014977D01*
X0169977Y0012400D01*
X0171800Y0012400D01*
X0171800Y0012990D02*
X0171800Y0012990D01*
X0171800Y0014588D02*
X0171800Y0014588D01*
X0171800Y0016187D02*
X0171800Y0016187D01*
X0171800Y0017785D02*
X0171800Y0017785D01*
X0171800Y0019384D02*
X0171800Y0019384D01*
X0171800Y0020982D02*
X0171800Y0020982D01*
X0173840Y0020982D02*
X0196650Y0020982D01*
X0196650Y0019384D02*
X0175439Y0019384D01*
X0176200Y0017785D02*
X0196650Y0017785D01*
X0196650Y0016187D02*
X0176200Y0016187D01*
X0175811Y0014588D02*
X0196650Y0014588D01*
X0196650Y0038566D02*
X0122671Y0038566D01*
X0116800Y0041800D02*
X0146800Y0041800D01*
X0193800Y0086800D01*
X0187363Y0094514D02*
X0185016Y0094514D01*
X0185694Y0092915D02*
X0183347Y0092915D01*
X0186686Y0096112D02*
X0188100Y0096112D01*
X0193800Y0096800D02*
X0146800Y0051800D01*
X0116800Y0051800D01*
X0116800Y0068937D02*
X0116800Y0068937D01*
X0116800Y0070536D02*
X0116800Y0070536D01*
X0116800Y0072134D02*
X0116800Y0072134D01*
X0116800Y0073733D02*
X0116800Y0073733D01*
X0116800Y0075332D02*
X0116800Y0075332D01*
X0122025Y0075332D02*
X0156884Y0075332D01*
X0158554Y0076930D02*
X0069357Y0076930D01*
X0064243Y0076930D02*
X0060630Y0076930D01*
X0062228Y0075332D02*
X0062270Y0075332D01*
X0062378Y0078529D02*
X0059031Y0078529D01*
X0057433Y0080127D02*
X0061561Y0080127D01*
X0056000Y0068540D02*
X0037740Y0086800D01*
X0006800Y0086800D01*
X0006800Y0096800D02*
X0036800Y0096800D01*
X0016800Y0101800D02*
X0011800Y0106800D01*
X0006800Y0106800D01*
X0011162Y0110499D02*
X0014536Y0110499D01*
X0012757Y0112097D02*
X0010158Y0112097D01*
X0016800Y0116800D02*
X0016800Y0121800D01*
X0031800Y0136800D01*
X0071800Y0136800D01*
X0075384Y0136075D02*
X0082500Y0136075D01*
X0082142Y0137673D02*
X0075384Y0137673D01*
X0081412Y0128082D02*
X0032042Y0128082D01*
X0033784Y0124885D02*
X0080780Y0124885D01*
X0081003Y0118491D02*
X0033560Y0118491D01*
X0031800Y0121800D02*
X0086800Y0121800D01*
X0086800Y0131800D02*
X0031800Y0131800D01*
X0022216Y0122216D01*
X0022216Y0116384D01*
X0021800Y0136800D02*
X0026800Y0141800D01*
X0021800Y0151800D02*
X0086800Y0151800D01*
X0093655Y0160053D02*
X0098478Y0160053D01*
X0098216Y0161651D02*
X0094000Y0161651D01*
X0093779Y0163250D02*
X0098216Y0163250D01*
X0099779Y0164848D02*
X0092857Y0164848D01*
X0079685Y0177636D02*
X0076576Y0177636D01*
X0072772Y0177636D02*
X0068702Y0177636D01*
X0070689Y0179235D02*
X0070785Y0179235D01*
X0064898Y0177636D02*
X0060828Y0177636D01*
X0062815Y0179235D02*
X0062911Y0179235D01*
X0057024Y0177636D02*
X0053915Y0177636D01*
X0054250Y0185629D02*
X0056285Y0185629D01*
X0061567Y0185629D02*
X0064159Y0185629D01*
X0069441Y0185629D02*
X0072033Y0185629D01*
X0077315Y0185629D02*
X0079350Y0185629D01*
X0047854Y0185629D02*
X0044821Y0185629D01*
X0035245Y0188826D02*
X0012355Y0188826D01*
X0014765Y0187227D02*
X0032835Y0187227D01*
X0031519Y0185629D02*
X0016081Y0185629D01*
X0016743Y0184030D02*
X0030857Y0184030D01*
X0030560Y0182432D02*
X0017040Y0182432D01*
X0017040Y0180833D02*
X0030560Y0180833D01*
X0030995Y0179235D02*
X0016605Y0179235D01*
X0015942Y0177636D02*
X0031657Y0177636D01*
X0033170Y0176038D02*
X0014430Y0176038D01*
X0022922Y0169644D02*
X0024678Y0169644D01*
X0027003Y0158454D02*
X0028897Y0158454D01*
X0020597Y0158454D02*
X0018421Y0158454D01*
X0015501Y0158454D02*
X0015501Y0158454D01*
X0015501Y0160053D02*
X0015501Y0160053D01*
X0015501Y0161651D02*
X0015501Y0161651D01*
X0015501Y0161721D02*
X0015501Y0161721D01*
X0021800Y0151800D02*
X0016800Y0146800D01*
X0004430Y0176038D02*
X0003800Y0176038D01*
X0003800Y0187227D02*
X0004095Y0187227D01*
X0003800Y0188826D02*
X0006505Y0188826D01*
X0093332Y0139272D02*
X0110268Y0139272D01*
X0109606Y0140870D02*
X0093994Y0140870D01*
X0094000Y0142469D02*
X0109600Y0142469D01*
X0122857Y0164848D02*
X0133343Y0164848D01*
X0134346Y0172841D02*
X0139537Y0172841D01*
X0139977Y0172400D02*
X0137400Y0174977D01*
X0137400Y0176800D01*
X0141800Y0176800D01*
X0141800Y0176800D01*
X0141800Y0176800D01*
X0141800Y0181200D01*
X0139977Y0181200D01*
X0137400Y0178623D01*
X0137400Y0176800D01*
X0141800Y0176800D01*
X0141800Y0172400D01*
X0139977Y0172400D01*
X0141800Y0172841D02*
X0141800Y0172841D01*
X0141800Y0174439D02*
X0141800Y0174439D01*
X0141800Y0176038D02*
X0141800Y0176038D01*
X0141800Y0177636D02*
X0141800Y0177636D01*
X0141800Y0179235D02*
X0141800Y0179235D01*
X0141800Y0180833D02*
X0141800Y0180833D01*
X0143989Y0180833D02*
X0177200Y0180833D01*
X0177200Y0182432D02*
X0118937Y0182432D01*
X0127430Y0184030D02*
X0177525Y0184030D01*
X0177860Y0179235D02*
X0145588Y0179235D01*
X0139611Y0180833D02*
X0134272Y0180833D01*
X0135871Y0179235D02*
X0138012Y0179235D01*
X0137400Y0177636D02*
X0136400Y0177636D01*
X0136400Y0176038D02*
X0137400Y0176038D01*
X0137938Y0174439D02*
X0135945Y0174439D01*
X0163590Y0176038D02*
X0196650Y0176038D01*
X0193800Y0106800D02*
X0146800Y0061800D01*
X0150206Y0068937D02*
X0122759Y0068937D01*
X0123616Y0070536D02*
X0151876Y0070536D01*
X0153545Y0072134D02*
X0123800Y0072134D01*
X0123353Y0073733D02*
X0155215Y0073733D01*
X0153623Y0077400D02*
X0156200Y0079977D01*
X0156200Y0081800D01*
X0156200Y0083623D01*
X0153623Y0086200D01*
X0151800Y0086200D01*
X0151800Y0081800D01*
X0156200Y0081800D01*
X0151800Y0081800D01*
X0151800Y0081800D01*
X0151800Y0081800D01*
X0151800Y0077400D01*
X0153623Y0077400D01*
X0154751Y0078529D02*
X0160223Y0078529D01*
X0161893Y0080127D02*
X0156200Y0080127D01*
X0156200Y0081726D02*
X0163562Y0081726D01*
X0165232Y0083324D02*
X0156200Y0083324D01*
X0154900Y0084923D02*
X0166902Y0084923D01*
X0151800Y0084923D02*
X0151800Y0084923D01*
X0151800Y0086200D02*
X0149977Y0086200D01*
X0147400Y0083623D01*
X0147400Y0081800D01*
X0151800Y0081800D01*
X0151800Y0081800D01*
X0151800Y0081800D01*
X0151800Y0086200D01*
X0151800Y0083324D02*
X0151800Y0083324D01*
X0151800Y0081800D02*
X0147400Y0081800D01*
X0147400Y0079977D01*
X0149977Y0077400D01*
X0151800Y0077400D01*
X0151800Y0081800D01*
X0151800Y0081726D02*
X0151800Y0081726D01*
X0151800Y0080127D02*
X0151800Y0080127D01*
X0151800Y0078529D02*
X0151800Y0078529D01*
X0148849Y0078529D02*
X0135034Y0078529D01*
X0134406Y0077900D02*
X0135700Y0079194D01*
X0136400Y0080885D01*
X0136400Y0082715D01*
X0135700Y0084406D01*
X0134406Y0085700D01*
X0132715Y0086400D01*
X0130885Y0086400D01*
X0129194Y0085700D01*
X0127900Y0084406D01*
X0127200Y0082715D01*
X0127200Y0080885D01*
X0127900Y0079194D01*
X0129194Y0077900D01*
X0130885Y0077200D01*
X0132715Y0077200D01*
X0134406Y0077900D01*
X0136086Y0080127D02*
X0147400Y0080127D01*
X0147400Y0081726D02*
X0136400Y0081726D01*
X0136148Y0083324D02*
X0147400Y0083324D01*
X0148700Y0084923D02*
X0135183Y0084923D01*
X0128417Y0084923D02*
X0122783Y0084923D01*
X0123748Y0083324D02*
X0127452Y0083324D01*
X0127200Y0081726D02*
X0124000Y0081726D01*
X0123686Y0080127D02*
X0127514Y0080127D01*
X0128566Y0078529D02*
X0122634Y0078529D01*
X0154149Y0044960D02*
X0196650Y0044960D01*
X0196650Y0046558D02*
X0155819Y0046558D01*
X0157488Y0048157D02*
X0196650Y0048157D01*
X0196650Y0049755D02*
X0159158Y0049755D01*
X0160827Y0051354D02*
X0196650Y0051354D01*
X0196650Y0052952D02*
X0162497Y0052952D01*
X0164166Y0054551D02*
X0196650Y0054551D01*
X0196650Y0056149D02*
X0165836Y0056149D01*
X0167505Y0057748D02*
X0196650Y0057748D01*
X0196650Y0059346D02*
X0169175Y0059346D01*
X0170845Y0060945D02*
X0196650Y0060945D01*
X0194000Y0062543D02*
X0193600Y0062543D01*
X0193600Y0061300D02*
X0193600Y0066600D01*
X0188300Y0066600D01*
X0188300Y0066367D01*
X0188435Y0065512D01*
X0188703Y0064689D01*
X0189096Y0063917D01*
X0189605Y0063217D01*
X0190217Y0062605D01*
X0190917Y0062096D01*
X0191689Y0061703D01*
X0192512Y0061435D01*
X0193367Y0061300D01*
X0193600Y0061300D01*
X0190302Y0062543D02*
X0172514Y0062543D01*
X0174184Y0064142D02*
X0188982Y0064142D01*
X0188399Y0065740D02*
X0175853Y0065740D01*
X0177523Y0067339D02*
X0188317Y0067339D01*
X0188716Y0068937D02*
X0179192Y0068937D01*
X0180862Y0070536D02*
X0189758Y0070536D01*
X0190404Y0072134D02*
X0182531Y0072134D01*
X0184201Y0073733D02*
X0188901Y0073733D01*
X0188239Y0075332D02*
X0185871Y0075332D01*
X0187540Y0076930D02*
X0188100Y0076930D01*
X0193600Y0065740D02*
X0194000Y0065740D01*
X0194000Y0064142D02*
X0193600Y0064142D01*
X0196650Y0043361D02*
X0152479Y0043361D01*
X0150810Y0041763D02*
X0196650Y0041763D01*
X0196650Y0040164D02*
X0149140Y0040164D01*
X0133705Y0021400D02*
X0129895Y0021400D01*
X0127200Y0018705D01*
X0127200Y0014895D01*
X0129895Y0012200D01*
X0133705Y0012200D01*
X0136400Y0014895D01*
X0136400Y0018705D01*
X0133705Y0021400D01*
X0134123Y0020982D02*
X0169760Y0020982D01*
X0168161Y0019384D02*
X0135722Y0019384D01*
X0136400Y0017785D02*
X0167400Y0017785D01*
X0167400Y0016187D02*
X0136400Y0016187D01*
X0136093Y0014588D02*
X0167789Y0014588D01*
X0169388Y0012990D02*
X0134495Y0012990D01*
X0129105Y0012990D02*
X0119495Y0012990D01*
X0118705Y0012200D02*
X0121400Y0014895D01*
X0121400Y0018705D01*
X0118705Y0021400D01*
X0114895Y0021400D01*
X0112200Y0018705D01*
X0112200Y0014895D01*
X0114895Y0012200D01*
X0118705Y0012200D01*
X0121093Y0014588D02*
X0127507Y0014588D01*
X0127200Y0016187D02*
X0121400Y0016187D01*
X0121400Y0017785D02*
X0127200Y0017785D01*
X0127878Y0019384D02*
X0120722Y0019384D01*
X0119123Y0020982D02*
X0129477Y0020982D01*
X0114477Y0020982D02*
X0109123Y0020982D01*
X0110722Y0019384D02*
X0112878Y0019384D01*
X0112200Y0017785D02*
X0111400Y0017785D01*
X0111400Y0016187D02*
X0112200Y0016187D01*
X0112507Y0014588D02*
X0111093Y0014588D01*
X0109495Y0012990D02*
X0114105Y0012990D01*
X0092000Y0012990D02*
X0091600Y0012990D01*
X0091600Y0014588D02*
X0092000Y0014588D01*
X0092000Y0016187D02*
X0091600Y0016187D01*
X0091600Y0011391D02*
X0092000Y0011391D01*
X0092000Y0009793D02*
X0091600Y0009793D01*
X0091600Y0008194D02*
X0092000Y0008194D01*
X0063863Y0035369D02*
X0012118Y0035369D01*
X0011397Y0033770D02*
X0062265Y0033770D01*
X0052000Y0016187D02*
X0051600Y0016187D01*
X0051600Y0014588D02*
X0052000Y0014588D01*
X0052000Y0012990D02*
X0051600Y0012990D01*
X0051600Y0011391D02*
X0052000Y0011391D01*
X0052000Y0009793D02*
X0051600Y0009793D01*
X0051600Y0008194D02*
X0052000Y0008194D01*
X0056000Y0067600D02*
X0056000Y0068540D01*
X0020907Y0073733D02*
X0011699Y0073733D01*
D19*
X0051800Y0041800D03*
X0101800Y0041800D03*
X0106800Y0046800D03*
X0096800Y0091800D03*
X0101800Y0111800D03*
X0071800Y0136800D03*
X0096800Y0146800D03*
X0106800Y0156800D03*
X0101800Y0161800D03*
X0031800Y0121800D03*
X0022216Y0116384D03*
X0016800Y0116800D03*
X0026800Y0146800D03*
D20*
X0036800Y0051800D03*
M02*
